<svg width="375" height="375" viewBox="0 0 375 375" fill="none" xmlns="http://www.w3.org/2000/svg">
<path fill-rule="evenodd" clip-rule="evenodd" d="M639.046 264.046C568.515 334.576 474.744 373.417 375.001 373.417C275.258 373.417 181.485 334.576 110.955 264.046C40.4244 193.515 1.5831 99.7422 1.5831 -0.000762939C1.5831 -99.7438 40.4244 -193.517 110.955 -264.047C181.485 -334.576 275.258 -373.417 375.001 -373.417C474.744 -373.417 568.515 -334.576 639.046 -264.047C709.576 -193.517 748.417 -99.7438 748.417 -0.000762939C748.417 99.7422 709.576 193.515 639.046 264.046ZM640.165 -265.166C569.337 -335.994 475.165 -375 375.001 -375C274.835 -375 180.663 -335.994 109.835 -265.166C39.0075 -194.337 0 -100.167 0 -0.000793457C0 100.165 39.0075 194.337 109.835 265.165C180.663 335.992 274.835 375 375.001 375C475.165 375 569.337 335.992 640.165 265.165C710.992 194.337 750 100.165 750 -0.000793457C750 -100.167 710.992 -194.337 640.165 -265.166ZM633.885 258.405C564.863 327.556 473.044 365.69 375.34 365.78H374.99C277.42 365.777 185.659 327.822 116.593 258.883C47.4438 189.862 9.31019 98.042 9.21995 0.338013C9.1313 -97.366 47.0924 -189.257 116.115 -258.408C185.137 -327.558 276.958 -365.691 374.662 -365.782H375.01C472.58 -365.782 564.341 -327.824 633.405 -258.886C702.556 -189.863 740.69 -98.0435 740.78 -0.339569C740.87 97.3644 702.908 189.255 633.885 258.405ZM634.526 -260.005C565.154 -329.247 473.009 -367.365 375.01 -367.365H374.66C276.534 -367.273 184.317 -328.976 114.995 -259.526C45.6739 -190.075 7.54662 -97.7871 7.63686 0.3396C7.72868 98.4647 46.0254 190.683 115.474 260.004C184.846 329.247 276.991 367.363 374.991 367.363H375.34C473.466 367.271 565.683 328.975 635.005 259.524C704.326 190.074 742.453 97.7856 742.363 -0.341125C742.271 -98.4678 703.975 -190.685 634.526 -260.005ZM628.724 252.766C561.208 320.54 471.34 357.961 375.677 358.142H374.98C279.58 358.142 189.84 321.073 122.234 253.722C54.4601 186.206 17.0389 96.3386 16.8568 0.676788C16.6763 -94.9882 53.7588 -184.995 121.275 -252.768C188.792 -320.54 278.66 -357.963 374.323 -358.145C374.558 -358.145 374.787 -358.145 375.021 -358.145C470.422 -358.145 560.16 -321.077 627.768 -253.725C695.54 -186.209 732.963 -96.3417 733.143 -0.678345C733.325 94.9866 696.241 184.994 628.724 252.766ZM628.884 -254.848C560.975 -322.5 470.851 -359.728 375.021 -359.728C374.792 -359.728 374.55 -359.728 374.32 -359.728C278.234 -359.546 187.969 -321.957 120.154 -253.885C52.3403 -185.814 15.0917 -95.4077 15.2737 0.679932C15.4558 96.766 53.0448 187.031 121.116 254.845C189.025 322.498 279.151 359.729 374.98 359.725H375.68C471.766 359.544 562.031 321.955 629.844 253.884C697.66 185.812 734.908 95.4061 734.726 -0.681519C734.544 -96.7676 696.955 -187.033 628.884 -254.848ZM623.564 247.125C557.552 313.521 469.638 350.234 376.017 350.505C375.661 350.506 375.324 350.506 374.969 350.506C281.742 350.502 194.016 314.323 127.871 248.563C61.4796 182.552 24.766 94.6384 24.4937 1.01559C24.223 -92.6088 60.4268 -180.735 126.436 -247.129C192.448 -313.52 280.362 -350.236 373.984 -350.506C374.339 -350.508 374.676 -350.508 375.031 -350.508C468.258 -350.508 555.985 -314.325 622.127 -248.564C688.52 -182.554 725.234 -94.6399 725.506 -1.01709C725.777 92.6072 689.573 180.734 623.564 247.125ZM623.245 -249.687C556.794 -315.753 468.692 -352.091 375.031 -352.091C374.686 -352.091 374.323 -352.091 373.978 -352.089H373.98C279.933 -351.817 191.623 -314.937 125.313 -248.245C59.0052 -181.55 22.6383 -93.0268 22.9106 1.02026C23.1829 95.0657 60.0627 183.377 126.755 249.687C193.206 315.751 281.308 352.094 374.969 352.089C375.314 352.089 375.677 352.089 376.02 352.088C470.067 351.815 558.377 314.936 624.687 248.243C690.993 181.55 727.362 93.0267 727.089 -1.02191C726.817 -95.0674 689.936 -183.379 623.245 -249.687ZM618.402 241.486C553.899 306.503 467.936 342.507 376.353 342.868C375.884 342.87 375.428 342.871 374.961 342.871C283.901 342.866 198.193 307.574 133.512 243.402C68.4974 178.899 32.4915 92.9365 32.1305 1.35275C31.768 -90.231 67.0932 -176.473 131.598 -241.49C196.101 -306.504 282.064 -342.509 373.646 -342.871C374.11 -342.873 374.573 -342.874 375.037 -342.874C466.103 -342.874 551.803 -307.581 616.488 -243.404C681.503 -178.899 717.508 -92.9381 717.869 -1.35434C718.232 90.2294 682.907 176.472 618.402 241.486ZM617.602 -244.528C552.289 -309.33 465.676 -344.757 373.641 -344.454C281.633 -344.09 195.277 -307.919 130.474 -242.604C65.6716 -177.289 30.1833 -90.6473 30.5474 1.35907C30.91 93.3671 67.0821 179.723 132.398 244.526C197.382 308.999 283.476 344.454 374.961 344.454C375.427 344.454 375.894 344.453 376.359 344.451C468.367 344.088 554.723 307.918 619.526 242.602C684.328 177.285 719.817 90.6457 719.453 -1.36069C719.09 -93.3671 682.918 -179.725 617.602 -244.528ZM613.241 235.847C550.245 299.485 466.236 334.781 376.692 335.233C376.117 335.236 375.549 335.237 374.972 335.237C190.912 335.234 40.6982 185.964 39.7674 1.69153C38.8334 -183.156 188.46 -334.3 373.308 -335.233C373.883 -335.236 374.451 -335.237 375.028 -335.237C559.09 -335.237 709.302 -185.966 710.233 -1.69315C710.684 87.8516 676.239 172.212 613.241 235.847ZM611.962 -239.368C548.439 -302.254 464.365 -336.82 375.047 -336.82C374.466 -336.82 373.882 -336.819 373.299 -336.816C187.578 -335.879 37.2471 -184.022 38.1843 1.69943C39.1199 186.854 190.025 336.82 374.972 336.82C375.539 336.82 376.134 336.819 376.701 336.816C562.422 335.878 712.753 184.02 711.816 -1.70105C711.361 -91.6668 675.898 -176.073 611.962 -239.368ZM608.08 230.208C546.591 292.467 464.534 327.053 377.03 327.596C376.337 327.6 375.661 327.6 374.968 327.6C195.278 327.591 48.5188 181.971 47.4043 2.03027C46.285 -178.607 192.332 -326.477 372.97 -327.597C373.663 -327.602 374.339 -327.604 375.031 -327.604C554.722 -327.604 701.48 -181.973 702.596 -2.03192C703.137 85.4721 669.572 167.95 608.08 230.208ZM375.031 -329.187C374.347 -329.187 373.646 -329.184 372.96 -329.18C191.452 -328.055 44.6956 -179.47 45.8212 2.03983C46.942 182.863 194.395 329.184 374.968 329.184C375.653 329.184 376.353 329.184 377.04 329.179C464.967 328.634 547.419 293.881 609.207 231.321C670.997 168.762 704.723 85.8854 704.179 -2.04141C703.058 -182.864 555.605 -329.187 375.031 -329.187ZM377.369 319.957C376.562 319.964 375.77 319.967 374.964 319.967C199.638 319.957 56.3424 177.987 55.0427 2.36749C54.4079 -83.096 87.0957 -163.691 147.079 -224.571C207.066 -285.451 287.169 -319.326 372.632 -319.959C373.44 -319.965 374.233 -319.968 375.039 -319.968C550.364 -319.968 693.658 -177.988 694.959 -2.36911C696.267 174.056 553.794 318.651 377.369 319.957ZM372.62 -321.542C286.732 -320.907 206.233 -286.863 145.952 -225.682C85.6709 -164.5 52.8216 -83.5076 53.4596 2.38016C54.0944 88.2663 88.1389 168.765 149.319 229.048C209.922 288.758 289.952 321.553 374.934 321.55C375.746 321.55 376.568 321.547 377.382 321.54C554.679 320.228 697.854 174.917 696.542 -2.38181C695.23 -179.681 549.952 -322.793 372.62 -321.542ZM377.708 312.32C376.775 312.328 375.854 312.333 374.923 312.333C292.537 312.33 214.907 280.584 156.07 222.758C96.5689 164.279 63.4014 86.1308 62.678 2.70633C61.1851 -169.508 200.078 -310.829 372.292 -312.322C373.218 -312.33 374.119 -312.335 375.042 -312.335C545.999 -312.335 685.837 -173.997 687.322 -2.70789C688.813 169.508 549.922 310.829 377.708 312.32ZM375.042 -313.916C374.125 -313.916 373.198 -313.913 372.279 -313.905C199.192 -312.404 59.5957 -170.367 61.0949 2.72055C61.8215 86.5677 95.1568 165.113 154.96 223.887C214.098 282.01 292.115 313.916 374.923 313.916C375.853 313.916 376.79 313.911 377.721 313.904C550.808 312.404 690.404 170.366 688.905 -2.72214C687.412 -174.89 546.879 -313.916 375.042 -313.916ZM592.597 213.29C535.627 271.413 459.429 303.87 378.045 304.684C377.01 304.695 375.984 304.699 374.952 304.699C208.355 304.695 71.985 170.014 70.3148 3.04507C68.6367 -164.959 203.952 -303.006 371.955 -304.685C372.99 -304.696 374.015 -304.701 375.047 -304.701C541.644 -304.701 678.015 -170.014 679.685 -3.04669C680.499 78.3372 649.57 155.168 592.597 213.29ZM371.939 -306.268C203.064 -304.581 67.0457 -165.816 68.7317 3.06091C69.5502 84.8674 102.176 161.459 160.6 218.728C218.276 275.262 294.274 306.283 374.914 306.283C375.96 306.283 377.011 306.278 378.061 306.267C459.867 305.448 536.461 272.824 593.729 214.4C650.998 155.974 682.085 78.7456 681.268 -3.0625C679.579 -171.938 540.868 -307.905 371.939 -306.268ZM378.384 297.048C377.235 297.061 376.096 297.067 374.952 297.067C212.718 297.061 79.8039 166.025 77.9517 3.38229C76.0868 -160.41 207.823 -295.183 371.616 -297.048C372.78 -297.063 373.932 -297.069 375.094 -297.069C453.146 -297.069 526.739 -267.091 582.652 -212.438C639.397 -156.973 671.143 -82.7287 672.048 -3.38388C673.913 160.408 542.177 295.182 378.384 297.048ZM583.759 -213.57C527.543 -268.518 453.568 -298.652 375.094 -298.652C373.932 -298.652 372.762 -298.646 371.599 -298.631C206.933 -296.755 74.4942 -161.265 76.3686 3.40128C78.2319 166.919 211.839 298.65 374.95 298.65C376.093 298.65 377.257 298.642 378.401 298.631C543.067 296.755 675.506 161.263 673.631 -3.40286C672.721 -83.1703 640.804 -157.809 583.759 -213.57ZM582.276 202.012C528.316 257.377 456.027 288.417 378.721 289.41C377.442 289.427 376.174 289.435 374.898 289.435C299.014 289.432 227.436 260.343 172.988 207.276C117.623 153.316 86.5827 81.0252 85.5885 3.72104C84.5959 -73.5832 113.764 -146.648 167.724 -202.013C221.684 -257.379 293.973 -288.417 371.279 -289.411C372.558 -289.427 373.828 -289.437 375.102 -289.437C450.988 -289.437 522.564 -260.344 577.012 -207.277C632.378 -153.317 663.417 -81.0269 664.41 -3.72269C665.404 73.5815 636.235 146.648 582.276 202.012ZM665.993 -3.74167C664.996 -81.4701 633.786 -154.156 578.118 -208.411C522.45 -262.665 449.037 -292 371.258 -290.995C293.531 -289.996 220.845 -258.786 166.591 -203.118C112.337 -147.45 83.0081 -73.9868 84.0054 3.74005C85.006 81.4685 116.214 154.155 171.882 208.409C226.631 261.771 298.593 291.02 374.898 291.018C376.175 291.018 377.461 291.01 378.742 290.993C456.469 289.996 529.155 258.786 583.409 203.118C637.663 147.45 666.992 73.9852 665.993 -3.74167ZM379.06 281.773C377.675 281.794 376.32 281.803 374.941 281.803C221.44 281.789 95.4449 158.045 93.227 4.05829C92.141 -71.2069 120.431 -142.388 172.885 -196.374C225.338 -250.361 295.677 -280.69 370.94 -281.775C372.325 -281.795 373.68 -281.805 375.059 -281.805C528.558 -281.805 654.555 -158.046 656.775 -4.05984C659.013 151.312 534.431 279.535 379.06 281.773ZM375.061 -283.388C373.682 -283.388 372.3 -283.378 370.918 -283.358C295.23 -282.267 224.499 -251.769 171.749 -197.478C119.001 -143.187 90.5515 -71.6059 91.6439 4.082C93.8745 158.94 220.565 283.386 374.939 283.386C376.318 283.386 377.7 283.377 379.082 283.356C535.326 281.105 660.609 152.16 658.358 -4.08362C656.126 -158.944 529.435 -283.388 375.061 -283.388ZM571.954 190.734C521.007 243.343 452.622 272.963 379.397 274.136C377.887 274.161 376.386 274.173 374.879 274.173C303.331 274.171 235.788 246.85 184.266 196.952C131.657 146.005 102.037 77.6216 100.864 4.39703C99.6892 -68.8291 127.099 -138.128 178.048 -190.735C228.993 -243.343 297.378 -272.963 370.603 -274.138C372.097 -274.161 373.578 -274.174 375.066 -274.174C524.208 -274.174 646.736 -154.063 649.138 -4.39865C650.312 68.8275 622.901 138.126 571.954 190.734ZM370.578 -275.721C296.93 -274.54 228.151 -244.749 176.909 -191.837C125.668 -138.924 98.0998 -69.2265 99.2807 4.42078C100.462 78.0696 130.251 146.849 183.164 198.09C234.989 248.278 302.911 275.756 374.879 275.756C376.391 275.756 377.907 275.745 379.422 275.719C453.07 274.538 521.85 244.749 573.092 191.836C624.332 138.924 651.902 69.2249 650.721 -4.42239C648.28 -156.455 522.55 -278.156 370.578 -275.721ZM566.793 185.095C517.353 236.324 450.92 265.234 379.736 266.499C378.131 266.528 376.53 266.542 374.93 266.542C230.144 266.54 111.083 150.078 108.499 4.73425C105.89 -142.214 223.318 -263.89 370.266 -266.501C371.871 -266.529 373.472 -266.544 375.07 -266.544C519.856 -266.544 638.917 -150.08 641.501 -4.73581C642.766 66.4481 616.235 133.866 566.793 185.095ZM370.237 -268.084C222.416 -265.458 104.291 -143.059 106.916 4.76276C109.515 150.978 229.27 268.125 374.93 268.125C376.53 268.125 378.157 268.109 379.764 268.082C451.371 266.81 518.197 237.728 567.933 186.194C617.667 134.661 644.355 66.8439 643.084 -4.76434C640.458 -152.586 518.027 -270.72 370.237 -268.084ZM561.632 179.456C513.696 229.308 449.218 257.507 380.073 258.862C310.863 260.208 245.394 234.563 195.544 186.63C145.692 138.696 117.491 74.218 116.136 5.07303C114.781 -64.0719 140.433 -129.607 188.368 -179.457C236.304 -229.309 300.782 -257.509 369.927 -258.864C371.667 -258.899 373.402 -258.915 375.135 -258.915C442.357 -258.915 505.86 -233.362 554.456 -186.632C604.308 -138.697 632.509 -74.218 633.864 -5.07462C635.219 64.0719 609.567 129.606 561.632 179.456ZM369.895 -260.447C300.328 -259.084 235.456 -230.71 187.228 -180.555C139.001 -130.399 113.19 -64.4645 114.553 5.10315C115.918 74.6707 144.291 139.543 194.445 187.77C243.344 234.79 307.225 260.496 374.863 260.496C376.604 260.496 378.359 260.479 380.105 260.446C449.672 259.081 514.544 230.709 562.772 180.555C610.999 130.397 636.81 64.463 635.447 -5.10468C632.631 -148.715 513.492 -263.301 369.895 -260.447ZM556.47 173.817C510.042 222.29 447.516 249.78 380.41 251.226C313.3 252.699 249.654 227.897 201.182 181.47C152.71 135.042 125.22 72.5146 123.774 5.41025C122.329 -61.6956 147.101 -125.346 193.53 -173.818C239.958 -222.291 302.484 -249.782 369.59 -251.227C371.445 -251.267 373.294 -251.287 375.143 -251.287C440.199 -251.287 501.685 -226.615 548.819 -181.471C597.29 -135.042 624.78 -72.5177 626.226 -5.4118C627.671 61.6941 602.899 125.346 556.47 173.817ZM549.912 -182.614C501.137 -229.335 437.115 -254.264 369.557 -252.81C302.028 -251.355 239.108 -223.691 192.386 -174.914C145.667 -126.136 120.736 -62.0835 122.191 5.44348C123.646 72.972 151.309 135.892 200.088 182.614C247.52 228.046 309.388 252.869 374.855 252.869C376.714 252.869 378.582 252.85 380.443 252.809C447.972 251.354 510.892 223.691 557.614 174.912C604.333 126.136 629.264 62.0819 627.809 -5.44507C626.354 -72.9736 598.691 -135.894 549.912 -182.614ZM551.309 168.178C506.387 215.272 445.813 242.053 380.749 243.589C378.797 243.635 376.861 243.658 374.918 243.658C243.216 243.652 134.533 138.112 131.411 5.74744C128.242 -128.567 234.936 -240.421 369.251 -243.59C503.513 -246.782 615.421 -140.065 618.589 -5.74902C620.126 59.3163 596.231 121.084 551.309 168.178ZM369.215 -245.173C234.026 -241.983 126.638 -129.403 129.828 5.78543C132.972 139.017 242.348 245.241 374.918 245.241C376.866 245.241 378.83 245.218 380.785 245.172C446.273 243.627 507.24 216.671 552.455 169.272C597.668 121.871 621.718 59.7009 620.172 -5.78702C616.98 -140.976 504.387 -248.289 369.215 -245.173ZM546.146 162.54C502.731 208.256 444.111 234.328 381.086 235.952C318.031 237.589 258.175 214.561 212.46 171.145C166.744 127.73 140.672 69.1093 139.048 6.08459C137.422 -56.9401 160.437 -116.825 203.854 -162.541C247.269 -208.256 305.889 -234.328 368.914 -235.953C370.98 -236.007 373.033 -236.033 375.086 -236.033C502.432 -236.033 607.65 -134.127 610.953 -6.08624C612.578 56.9384 589.563 116.825 546.146 162.54ZM368.874 -237.537C305.425 -235.9 246.412 -209.653 202.704 -163.631C158.998 -117.611 135.828 -57.3231 137.465 6.12582C139.102 69.5732 165.348 128.586 211.37 172.294C255.871 214.558 313.702 237.616 374.841 237.616C376.929 237.616 379.031 237.589 381.126 237.535C444.575 235.898 503.588 209.652 547.296 163.63C591.002 117.609 614.172 57.32 612.537 -6.12735C609.158 -137.105 499.845 -240.924 368.874 -237.537ZM540.987 156.9C499.076 201.238 442.409 226.601 381.425 228.315C320.427 230.023 262.435 207.895 218.098 165.985C173.762 124.076 148.399 67.409 146.683 6.42181C143.142 -119.471 242.684 -224.775 368.575 -228.317C370.758 -228.378 372.919 -228.408 375.088 -228.408C498.074 -228.408 599.835 -130.136 603.317 -6.42343C605.033 54.5606 582.895 112.564 540.987 156.9ZM368.532 -229.9C241.766 -226.333 141.535 -120.299 145.1 6.46616C148.607 131.043 251.062 229.99 374.911 229.99C377.087 229.99 379.278 229.96 381.468 229.898C442.876 228.171 499.936 202.632 542.136 157.989C584.335 113.346 606.625 54.9406 604.9 -6.46774C601.331 -133.234 495.25 -233.435 368.532 -229.9ZM535.824 151.263C495.419 194.221 440.706 218.873 381.759 220.677C322.846 222.488 266.695 201.227 223.736 160.823C180.779 120.419 156.127 65.7056 154.322 6.75903C152.516 -52.186 173.772 -108.307 214.176 -151.264C254.581 -194.221 309.294 -218.873 368.239 -220.68C489.862 -224.394 591.95 -128.444 595.678 -6.76221C597.484 52.1844 576.228 108.305 535.824 151.263ZM368.19 -222.263C308.823 -220.444 253.717 -195.615 213.023 -152.349C172.33 -109.082 150.92 -52.5596 152.739 6.80811C154.558 66.1758 179.387 121.282 222.653 161.975C264.219 201.073 318.017 222.367 374.827 222.367C377.146 222.367 379.479 222.331 381.81 222.26C441.177 220.442 496.283 195.613 536.977 152.347C577.67 109.081 599.08 52.558 597.261 -6.80972C593.506 -129.365 490.787 -226.004 368.19 -222.263ZM530.662 145.624C491.765 187.204 439.004 211.146 382.098 213.041C325.19 214.957 270.953 194.559 229.376 155.662C187.796 116.764 163.854 64.0022 161.959 7.09622C160.061 -49.8082 180.441 -104.047 219.338 -145.625C258.236 -187.204 310.998 -211.148 367.904 -213.043C370.335 -213.124 372.759 -213.165 375.18 -213.165C429.418 -213.165 480.823 -192.9 520.625 -155.664C562.204 -116.765 586.146 -64.0038 588.041 -7.09781C589.938 49.8066 569.56 104.045 530.662 145.624ZM367.85 -214.624C310.521 -212.715 257.369 -188.595 218.181 -146.706C178.994 -104.819 158.466 -50.1786 160.376 7.15005C164.237 123.074 259.769 214.745 374.906 214.745C377.309 214.745 379.731 214.705 382.152 214.624C500.494 210.681 593.566 111.193 589.624 -7.15161C585.682 -125.494 486.209 -218.604 367.85 -214.624ZM525.501 139.986C488.108 180.186 437.3 203.419 382.433 205.404C379.912 205.496 377.409 205.542 374.903 205.542C264.977 205.536 173.602 118.171 169.596 7.43344C165.495 -105.828 254.306 -201.307 367.567 -205.408C480.818 -209.517 576.306 -120.696 580.404 -7.435C582.391 47.4304 562.892 99.785 525.501 139.986ZM375.097 -207.125C372.58 -207.125 370.044 -207.081 367.508 -206.989C253.376 -202.857 163.882 -106.641 168.012 7.49042C172.053 119.089 264.121 207.125 374.903 207.125C377.42 207.125 379.956 207.079 382.492 206.988C437.78 204.985 488.981 181.574 526.66 141.063C564.341 100.554 583.989 47.7945 581.988 -7.492C577.948 -119.091 485.879 -207.125 375.097 -207.125ZM520.34 134.347C484.453 173.169 435.597 195.692 382.771 197.768C380.108 197.872 377.461 197.924 374.809 197.924C324.896 197.921 277.517 179.415 240.653 145.339C201.831 109.453 179.308 60.597 177.232 7.77063C175.157 -45.0557 193.774 -95.528 229.661 -134.349C265.547 -173.171 314.403 -195.694 367.229 -197.769C369.865 -197.874 372.484 -197.924 375.099 -197.924C480.677 -197.924 568.587 -114.186 572.769 -7.77222C574.845 45.0541 556.226 95.5264 520.34 134.347ZM367.168 -199.351C313.919 -197.259 264.672 -174.556 228.499 -135.424C192.326 -96.2927 173.558 -45.4167 175.649 7.83234C177.742 61.0814 200.445 110.327 239.578 146.501C276.74 180.851 324.491 199.507 374.808 199.507C377.475 199.507 380.152 199.455 382.832 199.351C436.081 197.258 485.328 174.555 521.501 135.422C557.674 96.2895 576.444 45.4135 574.352 -7.83398C570.03 -117.755 477.142 -203.663 367.168 -199.351ZM383.108 190.131C380.356 190.248 377.627 190.306 374.899 190.306C273.67 190.3 189.221 110.195 184.868 8.10782C180.397 -96.7312 262.053 -185.662 366.892 -190.132C471.726 -194.592 560.66 -112.948 565.132 -8.10944C569.603 96.7311 487.947 185.66 383.108 190.131ZM366.824 -191.714C261.114 -187.205 178.779 -97.5354 183.285 8.1759C187.676 111.118 272.82 191.89 374.899 191.89C377.643 191.89 380.407 191.831 383.176 191.714C488.886 187.205 571.221 97.5354 566.715 -8.17749C562.207 -113.887 472.532 -196.219 366.824 -191.714ZM510.015 123.072C477.141 159.135 432.19 180.24 383.443 182.494C334.695 184.734 287.991 167.887 251.928 135.014C215.865 102.141 194.76 57.1886 192.505 8.44345C187.849 -92.1845 265.93 -177.84 366.557 -182.495C467.173 -187.142 552.838 -109.073 557.495 -8.44504C559.751 40.3017 542.89 87.0094 510.015 123.072ZM366.482 -184.077C264.983 -179.381 186.228 -92.9824 190.925 8.51627C193.198 57.6841 214.484 103.024 250.861 136.184C285.081 167.377 328.8 184.276 374.797 184.276C377.694 184.276 380.603 184.21 383.518 184.074C432.686 181.8 478.026 160.516 511.185 124.138C544.345 87.7614 561.352 40.6516 559.075 -8.51782C554.38 -110.018 468.017 -188.76 366.482 -184.077ZM383.781 174.859C380.803 175.007 377.85 175.082 374.899 175.082C282.36 175.075 204.834 102.218 200.141 8.77905C195.3 -87.6378 269.802 -170.017 366.219 -174.859C462.657 -179.722 545.017 -105.198 549.859 -8.78067C554.7 87.6363 480.198 170.016 383.781 174.859ZM366.139 -176.44C268.851 -171.555 193.676 -88.4294 198.561 8.85818C203.295 103.147 281.514 176.665 374.899 176.665C377.869 176.665 380.861 176.59 383.861 176.438C481.149 171.553 556.324 88.4278 551.438 -8.85983C546.553 -106.149 463.464 -181.345 366.139 -176.44ZM499.69 111.796C469.827 145.103 428.783 164.787 384.116 167.222C339.471 169.658 296.508 154.552 263.202 124.69C229.897 94.8267 210.213 53.7817 207.778 9.11469C202.752 -83.0896 273.678 -162.195 365.884 -167.223C458.058 -172.227 537.194 -101.324 542.222 -9.11627C544.656 35.5492 529.552 78.4907 499.69 111.796ZM365.797 -168.803C272.72 -163.728 201.125 -83.8748 206.198 9.20175C208.657 54.2899 228.526 95.7243 262.147 125.868C293.421 153.909 333.107 169.06 374.789 169.058C377.915 169.058 381.056 168.973 384.202 168.802C429.292 166.343 470.724 146.474 500.868 112.853C531.013 79.2332 546.26 35.8849 543.802 -9.20334C538.728 -102.28 458.888 -173.896 365.797 -168.803ZM384.453 159.585C381.246 159.775 378.069 159.867 374.899 159.867C291.038 159.859 220.437 94.2393 215.415 9.45029C212.892 -33.1762 227.117 -74.2338 255.474 -106.162C283.829 -138.088 322.922 -157.06 365.548 -159.586C453.549 -164.782 529.373 -97.4467 534.586 -9.45187C539.798 78.543 472.448 154.373 384.453 159.585ZM365.456 -161.166C322.406 -158.616 282.926 -139.454 254.29 -107.213C225.651 -74.9683 211.285 -33.5038 213.835 9.54532C218.906 95.1782 290.201 161.45 374.898 161.45C378.094 161.45 381.313 161.356 384.545 161.165C473.412 155.901 541.429 79.3203 536.166 -9.54684C530.901 -98.414 454.282 -166.433 365.456 -161.166ZM489.364 100.523C462.513 131.07 425.373 149.333 384.788 151.946C381.468 152.16 378.178 152.266 374.898 152.266C295.369 152.261 228.235 90.2531 223.052 9.78586C217.655 -73.9979 281.43 -146.553 365.213 -151.948C449.007 -157.364 521.551 -93.5713 526.948 -9.78754C529.563 30.7999 516.215 69.9752 489.364 100.523ZM365.111 -153.53C280.455 -148.076 216.02 -74.7673 221.47 9.88879C226.709 91.1951 294.537 153.849 374.896 153.849C378.205 153.849 381.541 153.742 384.889 153.526C425.897 150.887 463.423 132.433 490.553 101.568C517.684 70.7019 531.169 31.1197 528.528 -9.89041C523.076 -94.5433 449.823 -158.983 365.111 -153.53ZM484.201 94.8853C458.856 124.054 423.668 141.607 385.122 144.31C305.55 149.915 236.271 89.6943 230.689 10.1215C225.107 -69.4528 285.306 -138.732 364.878 -144.313C368.307 -144.553 371.714 -144.672 375.101 -144.672C450.301 -144.672 513.97 -86.2669 519.311 -10.1231C522.015 28.4253 509.547 65.7167 484.201 94.8853ZM364.768 -145.893C284.324 -140.251 223.467 -70.2127 229.109 10.2323C234.509 87.2152 298.866 146.26 374.898 146.252C378.316 146.252 381.77 146.133 385.232 145.889C424.2 143.157 459.774 125.412 485.395 95.9254C511.019 66.437 523.625 28.7356 520.891 -10.2339C515.249 -90.6774 445.224 -151.53 364.768 -145.893ZM385.456 136.674C310.059 142.456 244.091 85.8157 238.324 10.4556C235.532 -26.0522 247.123 -61.4614 270.963 -89.251C294.803 -117.041 328.037 -133.883 364.543 -136.676C439.912 -142.451 505.909 -85.8189 511.676 -10.4572C517.441 64.9062 460.819 130.909 385.456 136.674ZM364.423 -138.254C327.494 -135.43 293.877 -118.393 269.76 -90.2816C245.646 -62.1706 233.922 -26.353 236.746 10.5759C242.306 83.2305 303.203 138.666 374.903 138.663C378.435 138.663 382 138.528 385.577 138.254C461.81 132.421 519.086 65.6566 513.254 -10.5775C507.422 -86.8115 440.645 -144.074 364.423 -138.254ZM473.873 83.6136C451.539 110.024 420.257 126.156 385.788 129.039C351.335 131.914 317.796 121.207 291.386 98.8731C264.976 76.5388 248.844 45.2568 245.961 10.788C243.08 -23.6792 253.793 -57.206 276.127 -83.6152C298.461 -110.026 329.743 -126.158 364.212 -129.039C398.665 -131.917 432.204 -121.207 458.614 -98.8747C485.024 -76.5403 501.156 -45.2568 504.039 -10.7896C506.92 23.6776 496.207 57.2044 473.873 83.6136ZM459.636 -100.083C432.904 -122.691 398.966 -133.538 364.079 -130.616C329.189 -127.7 297.526 -111.372 274.917 -84.6379C252.311 -57.9057 241.467 -23.9689 244.384 10.9194C247.302 45.8093 263.63 77.4744 290.364 100.083C314.24 120.275 343.863 131.083 374.779 131.083C378.477 131.083 382.194 130.928 385.921 130.616C420.809 127.698 452.474 111.37 475.083 84.6363C497.689 57.9041 508.533 23.9673 505.616 -10.921C502.698 -45.8109 486.37 -77.476 459.636 -100.083ZM468.709 77.9794C447.88 103.01 418.552 118.432 386.122 121.402C353.692 124.374 322.051 114.538 297.021 93.7074C271.99 72.8786 256.568 43.5486 253.598 11.122C247.465 -55.8208 296.935 -115.271 363.878 -121.404C430.799 -127.548 490.269 -78.0649 496.402 -11.1237C499.374 21.3045 489.539 52.949 468.709 77.9794ZM363.732 -122.98C295.924 -116.767 245.811 -56.5443 252.021 11.2661C255.032 44.1154 270.653 73.8253 296.009 94.9249C318.399 113.556 346.011 123.504 374.782 123.504C378.593 123.504 382.426 123.329 386.268 122.979C419.115 119.968 448.827 104.347 469.926 78.991C491.026 53.6361 500.988 21.5816 497.981 -11.2677C491.765 -79.0781 431.559 -129.183 363.732 -122.98ZM463.545 72.3436C444.222 95.9966 416.844 110.707 386.454 113.765C323.716 120.072 267.55 74.1847 261.233 11.4529C258.173 -18.9346 267.13 -48.6953 286.455 -72.3452C305.778 -95.9966 333.156 -110.707 363.546 -113.767C426.29 -120.085 482.449 -74.1847 488.767 -11.4545C491.825 18.933 482.87 48.6937 463.545 72.3436ZM363.387 -115.342C332.579 -112.239 304.821 -97.3264 285.23 -73.3473C265.637 -49.3697 256.557 -19.1974 259.66 11.6128C265.666 71.2829 316.171 115.929 374.914 115.928C378.781 115.928 382.684 115.735 386.613 115.339C417.421 112.238 445.179 97.3248 464.77 73.3456C484.363 49.3681 493.443 19.1942 490.34 -11.6144C483.937 -75.2122 427.004 -121.755 363.387 -115.342ZM386.785 106.128C328.274 112.629 275.37 70.3045 268.87 11.7854C262.371 -46.7354 304.695 -99.633 363.216 -106.132C367.201 -106.573 371.159 -106.79 375.08 -106.79C428.725 -106.79 475.073 -66.3215 481.13 -11.787C487.629 46.7338 445.306 99.6314 386.785 106.128ZM363.039 -107.705C303.654 -101.11 260.703 -47.4288 267.296 11.9595C273.444 67.3062 320.476 108.376 374.918 108.37C378.895 108.37 382.919 108.15 386.963 107.702C446.348 101.108 489.297 47.4272 482.704 -11.9611C476.11 -71.3478 422.468 -114.288 363.039 -107.705ZM387.115 98.4948C383.018 98.9982 378.957 99.242 374.93 99.242C325.572 99.2388 282.684 62.3273 276.505 12.1147C273.269 -14.1932 280.473 -40.1877 296.788 -61.0798C313.102 -81.9704 336.576 -95.2589 362.885 -98.4947C417.19 -105.174 466.812 -66.4259 473.495 -12.1162C480.175 42.1935 441.426 91.8125 387.115 98.4948ZM362.691 -100.067C335.963 -96.7787 312.114 -83.2796 295.54 -62.0534C278.964 -40.8289 271.647 -14.4196 274.935 12.3078C281.21 63.3246 324.78 100.825 374.928 100.825C379.017 100.825 383.149 100.577 387.309 100.065C442.487 93.2784 481.853 42.8663 475.065 -12.3094C468.278 -67.485 417.882 -106.855 362.691 -100.067ZM448.046 55.4472C433.235 74.9588 411.713 87.535 387.444 90.8595C363.169 94.1824 339.064 87.8564 319.553 73.0465C300.041 58.235 287.465 36.7128 284.141 12.4439C280.818 -11.8265 287.144 -35.9371 301.954 -55.4488C316.765 -74.9604 338.287 -87.535 362.556 -90.8595C366.781 -91.4373 371 -91.7238 375.191 -91.7238C395.079 -91.7238 414.333 -85.2791 430.447 -73.0465C449.959 -58.2366 462.535 -36.7144 465.859 -12.4455C469.182 11.825 462.856 35.9355 448.046 55.4472ZM431.405 -74.3082C411.556 -89.3745 387.029 -95.8082 362.342 -92.4283C337.652 -89.0468 315.76 -76.2538 300.692 -56.4049C285.627 -36.5577 279.192 -12.0308 282.573 12.6592C285.955 37.346 298.748 59.2403 318.595 74.3066C334.991 86.7513 354.574 93.3069 374.806 93.3053C379.068 93.3053 383.363 93.0156 387.658 92.4267C412.348 89.0452 434.242 76.2522 449.307 56.4034C464.373 36.5561 470.808 12.0291 467.427 -12.6608C464.045 -37.3476 451.252 -59.2419 431.405 -74.3082ZM442.879 49.8161C429.572 67.9473 410 79.8126 387.77 83.2226C365.543 86.6294 343.312 81.1836 325.182 67.8776C307.051 54.5717 295.189 34.9999 291.777 12.77C288.366 -9.45981 293.816 -31.6881 307.122 -49.8177C320.428 -67.9489 340 -79.8142 362.23 -83.2242C366.539 -83.8859 370.817 -84.2057 375.05 -84.2057C415.883 -84.2057 451.843 -54.3517 458.224 -12.7716C461.636 9.45819 456.185 31.6865 442.879 49.8161ZM361.988 -84.7899C315.237 -77.6153 283.037 -33.7429 290.212 13.0107C296.714 55.3743 333.343 85.7872 374.949 85.7872C379.258 85.7872 383.622 85.4611 388.012 84.7883C434.764 77.6137 466.964 33.7397 459.79 -13.0123C452.612 -59.7643 408.746 -91.9565 361.988 -84.7899ZM437.709 44.1898C425.905 60.9405 408.285 72.0903 388.095 75.5889C367.902 79.086 347.561 74.5108 330.81 62.7072C314.061 50.9037 302.91 33.2838 299.411 13.093C295.914 -7.09622 300.488 -27.4406 312.291 -44.1913C324.095 -60.9421 341.715 -72.0919 361.905 -75.5905C366.319 -76.3535 370.704 -76.7224 375.039 -76.7224C411.638 -76.7224 444.133 -50.3623 450.59 -13.0946C454.088 7.09464 449.512 27.439 437.709 44.1898ZM361.636 -77.1499C341.028 -73.58 323.045 -62.1991 310.996 -45.1032C298.95 -28.0058 294.282 -7.2435 297.853 13.3637C301.422 33.9709 312.803 51.9548 329.898 64.0022C343.249 73.4106 358.833 78.3181 374.833 78.3166C379.323 78.3166 383.85 77.9303 388.364 77.1482C408.972 73.5783 426.955 62.1975 439.004 45.1016C451.051 28.0057 455.72 7.24185 452.148 -13.3653C444.779 -55.9047 404.176 -84.5176 361.636 -77.1499ZM388.418 67.9552C383.904 68.8465 379.411 69.2739 374.977 69.2739C342.582 69.2708 313.553 46.3729 307.043 13.416C299.647 -24.056 324.112 -60.559 361.582 -67.9568C399.07 -75.3562 435.557 -50.8863 442.957 -13.4175C450.353 24.0544 425.888 60.5574 388.418 67.9552ZM361.277 -69.5098C322.95 -61.9426 297.925 -24.6053 305.492 13.7215C312.147 47.4351 341.84 70.857 374.975 70.857C379.511 70.857 384.11 70.4185 388.723 69.5082C427.05 61.941 452.075 24.6037 444.508 -13.7231C436.943 -52.0498 399.601 -77.0723 361.277 -69.5098ZM427.366 32.9435C418.566 46.9317 404.847 56.6551 388.733 60.3231C355.481 67.8935 322.25 46.995 314.675 13.7326C311.007 -2.38019 313.833 -18.9584 322.635 -32.945C331.434 -46.9333 345.153 -56.6566 361.267 -60.3247C365.871 -61.3727 370.472 -61.8745 375.007 -61.8745C403.232 -61.8745 428.798 -42.3914 435.323 -13.7342C438.993 2.3786 436.167 18.9568 427.366 32.9435ZM360.916 -61.8682C344.39 -58.1068 330.319 -48.1333 321.294 -33.7888C312.269 -19.4428 309.37 -2.44193 313.133 14.0824C319.824 43.4758 346.044 63.4561 374.993 63.4561C379.642 63.4561 384.365 62.9415 389.084 61.8666C405.61 58.1052 419.682 48.1317 428.707 33.7872C437.731 19.4412 440.63 2.44034 436.867 -14.084C429.102 -48.1982 395.027 -69.6365 360.916 -61.8682ZM422.191 27.3282C414.89 39.9344 403.12 48.9422 389.044 52.6926C359.977 60.4387 330.05 43.0958 322.307 14.0428C318.555 -0.0324707 320.509 -14.7252 327.809 -27.3298C335.11 -39.936 346.88 -48.9438 360.957 -52.6942C375.031 -56.4445 389.724 -54.491 402.33 -47.1913C414.934 -39.8917 423.942 -28.1198 427.693 -14.0444C431.444 0.0308533 429.491 14.7236 422.191 27.3282ZM403.123 -48.5607C390.153 -56.0741 375.031 -58.0862 360.549 -54.2234C346.065 -50.3638 333.951 -41.0948 326.439 -28.1245C318.927 -15.1526 316.917 -0.0340271 320.777 14.4513C327.462 39.5276 350.208 56.1231 375.013 56.1216C379.782 56.1216 384.631 55.5073 389.453 54.2218C403.935 50.3622 416.049 41.0932 423.561 28.1229C431.073 15.151 433.083 0.0308838 429.223 -14.4529C425.362 -28.9366 416.093 -41.0505 403.123 -48.5607ZM417.013 21.7224C411.209 32.9435 401.385 41.2341 389.347 45.0668C377.311 48.8995 364.5 47.8151 353.278 42.0114C342.055 36.2094 333.766 26.3831 329.933 14.3452C326.1 2.30734 327.187 -10.5015 332.989 -21.7241C338.791 -32.945 348.615 -41.2357 360.652 -45.0684C365.407 -46.5818 370.225 -47.3006 374.968 -47.3006C395.014 -47.3006 413.669 -34.4427 420.067 -14.3484C423.899 -2.31055 422.815 10.4999 417.013 21.7224ZM397.449 -43.4188C385.851 -49.4172 372.61 -50.5364 360.173 -46.5771C347.732 -42.6162 337.578 -34.0485 331.581 -22.4507C325.586 -10.8529 324.464 2.38492 328.424 14.8265C332.385 27.268 340.953 37.422 352.551 43.4172C359.594 47.0599 367.239 48.9026 374.945 48.9026C379.929 48.9026 384.941 48.1301 389.826 46.5755C402.268 42.6146 412.422 34.0469 418.419 22.4491C424.416 10.8513 425.536 -2.38812 421.576 -14.8281C417.615 -27.2697 409.047 -37.4236 397.449 -43.4188ZM389.638 37.4457C379.636 41.356 368.711 41.1375 358.871 36.8299C349.035 32.5208 341.463 24.6401 337.554 14.6381C333.642 4.63449 333.862 -6.29202 338.17 -16.1294C342.478 -25.9668 350.36 -33.5387 360.362 -37.4474C381.007 -45.5212 404.377 -35.288 412.447 -14.6397C420.52 6.01019 410.286 29.3751 389.638 37.4457ZM359.787 -38.9228C349.389 -34.859 341.197 -26.9894 336.72 -16.7642C332.241 -6.53897 332.015 4.81656 336.079 15.2144C340.143 25.6105 348.012 33.8015 358.237 38.2801C363.61 40.6325 369.294 41.812 374.988 41.812C380.13 41.812 385.28 40.8494 390.213 38.9212C400.611 34.8574 408.803 26.9879 413.28 16.7626C417.759 6.53741 417.985 -4.81815 413.923 -15.2159C405.531 -36.678 381.243 -47.3116 359.787 -38.9228ZM389.912 29.839C373.459 38.06 353.384 31.3635 345.159 14.9104C336.938 -1.54276 343.635 -21.618 360.088 -29.8406C364.863 -32.2247 369.94 -33.3551 374.945 -33.3551C387.192 -33.3551 399.002 -26.5921 404.841 -14.912C413.062 1.54114 406.365 21.6164 389.912 29.839ZM359.38 -31.2559C342.147 -22.6438 335.132 -1.61557 343.744 15.6196C349.858 27.8538 362.228 34.9366 375.056 34.9366C380.299 34.9366 385.62 33.7524 390.62 31.2543C398.969 27.0828 405.192 19.9098 408.145 11.0555C411.1 2.20288 410.427 -7.27197 406.256 -15.6212C397.644 -32.8532 376.614 -39.8695 359.38 -31.2559ZM401.458 5.01761C400.117 12.0846 396.103 18.2064 390.159 22.256C384.213 26.3055 377.046 27.7984 369.982 26.4559C362.914 25.115 356.792 21.1035 352.742 15.1589C344.385 2.88519 347.569 -13.8988 359.841 -22.2576C364.362 -25.3367 369.59 -26.9372 374.944 -26.9372C376.628 -26.9372 378.327 -26.7789 380.018 -26.4575C387.086 -25.1166 393.208 -21.1051 397.258 -15.1605C401.306 -9.21442 402.798 -2.04932 401.458 5.01761ZM380.312 -28.0137C372.829 -29.429 365.243 -27.8538 358.95 -23.5652C345.956 -14.7157 342.584 3.05457 351.435 16.0486C355.722 22.3446 362.205 26.592 369.688 28.0121C371.478 28.3509 373.275 28.5203 375.059 28.5203C380.728 28.5187 386.263 26.8248 391.05 23.5636C397.345 19.2766 401.594 12.7954 403.012 5.31207C404.432 -2.16965 402.852 -9.75742 398.565 -16.0502C394.278 -22.3462 387.795 -26.5937 380.312 -28.0137ZM390.373 14.7252C382.255 23.2011 368.751 23.4908 360.273 15.3711C356.167 11.4387 353.84 6.14163 353.718 0.456726C353.594 -5.22818 355.695 -10.6218 359.627 -14.7268C367.745 -23.2027 381.249 -23.494 389.727 -15.3727C393.832 -11.4402 396.16 -6.14322 396.282 -0.458313C396.404 5.22659 394.305 10.6186 390.373 14.7252ZM358.483 -15.8223C354.257 -11.4118 352.003 -5.61761 352.135 0.48996C352.266 6.59756 354.767 12.2888 359.179 16.5141C363.604 20.7536 369.302 22.8591 374.996 22.8591C381.017 22.8591 387.032 20.5019 391.517 15.8207C395.743 11.4102 397.997 5.61603 397.865 -0.491547C397.734 -6.59915 395.233 -12.2904 390.821 -16.5157C381.718 -25.2369 367.212 -24.9298 358.483 -15.8223Z" fill="url(#paint0_radial_471_1040)"/>
<defs>
<radialGradient id="paint0_radial_471_1040" cx="0" cy="0" r="1" gradientUnits="userSpaceOnUse" gradientTransform="translate(375 -4.91544e-06) rotate(90) scale(329.87)">
<stop stop-color="white" stop-opacity="0.01"/>
<stop offset="0.237022" stop-color="white" stop-opacity="0.3"/>
<stop offset="0.432108" stop-color="white"/>
<stop offset="0.784862" stop-color="white" stop-opacity="0.169213"/>
<stop offset="1" stop-color="white" stop-opacity="0"/>
</radialGradient>
</defs>
</svg>
