<svg width="375" height="812" viewBox="0 0 375 812" fill="none" xmlns="http://www.w3.org/2000/svg">
<path fill-rule="evenodd" clip-rule="evenodd" d="M659.613 878.613C533.505 1004.72 365.842 1074.17 187.501 1074.17C9.16092 1074.17 -158.505 1004.72 -284.613 878.613C-410.721 752.505 -480.169 584.839 -480.169 406.499C-480.169 228.158 -410.721 60.4917 -284.613 -65.6162C-158.505 -191.721 9.16092 -261.169 187.501 -261.169C365.842 -261.169 533.505 -191.721 659.613 -65.6162C785.721 60.4917 855.169 228.158 855.169 406.499C855.169 584.839 785.721 752.505 659.613 878.613ZM661.615 -67.6174C534.974 -194.257 366.595 -264 187.501 -264C8.40515 -264 -159.975 -194.257 -286.615 -67.6174C-413.255 59.0254 -483 227.402 -483 406.499C-483 585.595 -413.255 753.974 -286.615 880.615C-159.975 1007.25 8.40515 1077 187.501 1077C366.595 1077 534.974 1007.25 661.615 880.615C788.255 753.974 858 585.595 858 406.499C858 227.402 788.255 59.0254 661.615 -67.6174ZM650.386 868.528C526.975 992.171 362.802 1060.35 188.107 1060.51H187.482C13.0275 1060.51 -151.041 992.646 -274.531 869.383C-398.17 745.973 -466.353 581.799 -466.515 407.104C-466.673 232.41 -398.799 68.1088 -275.386 -55.5337C-151.975 -179.173 12.201 -247.356 186.896 -247.518H187.518C361.973 -247.518 526.041 -179.649 649.528 -56.3885C773.17 67.0247 841.353 231.198 841.515 405.893C841.676 580.588 773.799 744.888 650.386 868.528ZM651.532 -58.3897C527.496 -182.193 362.74 -250.348 187.518 -250.348H186.893C11.4423 -250.184 -153.442 -181.709 -277.39 -57.532C-401.335 66.6454 -469.507 231.657 -469.345 407.107C-469.181 582.555 -400.707 747.442 -276.532 871.387C-152.496 995.193 12.2604 1063.35 187.484 1063.35H188.107C363.558 1063.18 528.442 994.707 652.39 870.529C776.335 746.352 844.507 581.341 844.345 405.89C844.181 230.44 775.707 65.5556 651.532 -58.3897ZM641.158 858.445C520.44 979.625 359.756 1046.53 188.71 1046.86H187.465C16.8883 1046.86 -143.566 980.579 -264.445 860.155C-385.625 739.437 -452.535 578.753 -452.86 407.71C-453.183 236.661 -386.879 75.7287 -266.161 -45.4483C-145.44 -166.625 15.2438 -233.537 186.29 -233.863C186.709 -233.863 187.119 -233.863 187.538 -233.863C358.114 -233.863 518.566 -167.585 639.448 -47.1608C760.625 73.5576 827.537 234.241 827.86 405.287C828.185 576.336 761.879 737.268 641.158 858.445ZM641.444 -49.1677C520.023 -170.13 358.882 -236.693 187.538 -236.693C187.128 -236.693 186.695 -236.693 186.284 -236.693C14.4824 -236.368 -146.911 -169.159 -268.165 -47.4467C-389.415 74.2653 -456.016 235.911 -455.691 407.716C-455.365 579.518 -388.156 740.911 -266.444 862.162C-145.023 983.127 16.1213 1049.7 187.465 1049.69H188.716C360.518 1049.37 521.911 982.156 643.162 860.444C764.415 738.732 831.016 577.086 830.691 405.281C830.365 233.48 763.156 72.0857 641.444 -49.1677ZM631.933 848.36C513.904 967.074 356.713 1032.72 189.319 1033.2C188.682 1033.21 188.079 1033.21 187.445 1033.21C20.755 1033.2 -136.099 968.51 -254.366 850.93C-373.075 732.904 -438.718 575.713 -439.205 408.316C-439.689 240.915 -374.957 83.3458 -256.933 -35.3658C-138.904 -154.075 18.2867 -219.721 185.684 -220.205C186.318 -220.208 186.921 -220.208 187.555 -220.208C354.245 -220.208 511.102 -155.512 629.363 -37.9332C748.075 80.0934 813.719 237.284 814.205 404.681C814.689 572.082 749.957 729.651 631.933 848.36ZM631.361 -39.94C512.548 -158.066 355.021 -223.039 187.555 -223.039C186.938 -223.039 186.29 -223.039 185.673 -223.036H185.676C17.5196 -222.549 -140.378 -156.608 -258.94 -37.3614C-377.499 81.888 -442.523 240.168 -442.036 408.324C-441.549 576.478 -375.608 734.378 -256.361 852.94C-137.548 971.063 19.9794 1036.04 187.445 1036.04C188.062 1036.04 188.71 1036.04 189.324 1036.03C357.48 1035.55 515.378 969.605 633.94 850.359C752.496 731.112 817.523 572.832 817.036 404.673C816.549 236.52 750.605 78.6187 631.361 -39.94ZM622.703 838.277C507.371 954.526 353.67 1018.9 189.919 1019.55C189.081 1019.55 188.266 1019.55 187.431 1019.55C24.6158 1019.54 -128.632 956.443 -244.28 841.703C-360.527 726.371 -424.905 572.67 -425.551 408.919C-426.199 245.167 -363.037 90.9656 -247.703 -25.2833C-132.371 -141.529 21.3296 -205.905 185.078 -206.553C185.908 -206.556 186.737 -206.559 187.567 -206.559C350.393 -206.559 503.623 -143.454 619.28 -28.7055C735.527 86.6292 799.905 240.327 800.551 404.078C801.199 567.83 738.037 722.031 622.703 838.277ZM621.273 -30.7152C504.492 -146.582 349.628 -209.925 185.07 -209.384C20.5596 -208.733 -133.846 -144.06 -249.712 -27.276C-365.579 89.5079 -429.032 244.423 -428.381 408.93C-427.733 573.44 -363.057 727.846 -246.273 843.712C-130.081 958.99 23.8544 1022.38 187.431 1022.38C188.263 1022.38 189.098 1022.38 189.93 1022.38C354.44 1021.73 508.846 957.057 624.712 840.273C740.579 723.486 804.032 568.575 803.381 404.067C802.733 239.56 738.057 85.1516 621.273 -30.7152ZM613.475 828.195C500.838 941.979 350.63 1005.09 190.524 1005.9C189.497 1005.9 188.481 1005.9 187.45 1005.9C-141.649 1005.9 -410.232 739.004 -411.896 409.524C-413.566 79.0178 -146.034 -191.229 184.475 -192.896C185.503 -192.902 186.519 -192.904 187.549 -192.904C516.652 -192.904 785.232 73.9935 786.896 403.473C787.703 563.579 726.115 714.414 613.475 828.195ZM611.188 -21.4903C497.608 -133.929 347.285 -195.735 187.583 -195.735C186.545 -195.735 185.5 -195.732 184.459 -195.726C-147.611 -194.051 -416.402 77.4695 -414.726 409.539C-413.054 740.594 -143.235 1008.73 187.45 1008.73C188.464 1008.73 189.528 1008.73 190.541 1008.73C522.611 1007.05 791.402 735.528 789.726 403.459C788.914 242.6 725.506 91.6818 611.188 -21.4903ZM604.247 818.113C494.305 929.431 347.587 991.27 191.13 992.241C189.89 992.25 188.682 992.25 187.442 992.25C-133.843 992.233 -396.248 731.865 -398.241 410.13C-400.242 87.1501 -139.11 -177.24 183.87 -179.244C185.11 -179.253 186.318 -179.255 187.555 -179.255C508.843 -179.255 771.246 81.1322 773.241 402.867C774.209 559.324 714.195 706.794 604.247 818.113ZM187.555 -182.086C186.332 -182.086 185.078 -182.08 183.853 -182.075C-140.684 -180.062 -403.084 85.6074 -401.072 410.147C-399.068 733.458 -135.422 995.08 187.442 995.08C188.668 995.08 189.919 995.08 191.147 995.072C348.36 994.098 495.785 931.958 606.263 820.103C716.743 708.247 777.045 560.063 776.072 402.85C774.068 79.5386 510.422 -182.086 187.555 -182.086ZM191.736 978.584C190.292 978.595 188.877 978.601 187.436 978.601C-126.047 978.584 -382.26 724.74 -384.584 410.733C-385.719 257.924 -327.273 113.82 -220.022 4.9671C-112.766 -103.886 30.4581 -164.454 183.267 -165.586C184.71 -165.598 186.129 -165.603 187.569 -165.603C501.05 -165.603 757.26 88.2568 759.586 402.264C761.924 717.712 507.184 976.249 191.736 978.584ZM183.244 -168.417C29.6769 -167.282 -114.255 -106.41 -222.038 2.98001C-329.82 112.373 -388.555 257.188 -387.414 410.756C-386.279 564.32 -325.408 708.252 -216.017 816.038C-107.66 922.799 35.4343 981.437 187.383 981.431C188.835 981.431 190.304 981.426 191.759 981.414C508.766 979.068 764.764 719.252 762.417 402.241C760.07 85.2309 500.314 -170.653 183.244 -168.417ZM192.342 964.929C190.674 964.943 189.027 964.952 187.363 964.952C40.0567 964.946 -98.7463 908.184 -203.948 804.792C-310.335 700.23 -369.638 560.502 -370.932 411.339C-373.601 103.42 -125.26 -149.263 182.658 -151.932C184.314 -151.946 185.925 -151.954 187.575 -151.954C493.246 -151.954 743.277 95.3927 745.932 401.658C748.598 709.58 500.26 962.263 192.342 964.929ZM187.575 -154.782C185.936 -154.782 184.277 -154.777 182.636 -154.762C-126.845 -152.079 -376.443 101.883 -373.762 411.364C-372.463 561.283 -312.86 701.722 -205.932 806.81C-100.193 910.735 39.3009 967.782 187.363 967.782C189.024 967.782 190.7 967.774 192.364 967.76C501.846 965.079 751.443 711.114 748.762 401.633C746.093 93.7962 494.82 -154.782 187.575 -154.782ZM576.564 787.862C474.7 891.787 338.459 949.819 192.945 951.274C191.093 951.294 189.259 951.302 187.414 951.302C-110.462 951.294 -354.291 710.486 -357.277 411.945C-360.278 111.552 -118.334 -135.274 182.055 -138.277C183.907 -138.297 185.738 -138.305 187.583 -138.305C485.459 -138.305 729.291 102.514 732.277 401.053C733.732 546.567 678.431 683.94 576.564 787.862ZM182.027 -141.108C-119.922 -138.09 -363.122 110.021 -360.108 411.973C-358.644 558.243 -300.309 695.189 -195.846 797.585C-92.7229 898.668 43.1618 954.133 187.346 954.133C189.217 954.133 191.096 954.125 192.973 954.105C339.243 952.641 476.192 894.309 578.588 789.846C680.984 685.381 736.568 547.297 735.108 401.024C732.087 99.0753 484.072 -144.034 182.027 -141.108ZM193.55 937.622C191.495 937.645 189.46 937.656 187.414 937.656C-102.661 937.645 -340.311 703.353 -343.622 412.548C-346.957 119.688 -111.413 -121.288 181.45 -124.622C183.53 -124.648 185.591 -124.659 187.668 -124.659C327.224 -124.659 458.809 -71.0594 558.782 26.6606C660.242 125.833 717.003 258.581 718.622 400.45C721.957 693.31 486.413 934.285 193.55 937.622ZM560.761 24.6368C460.247 -73.6097 327.98 -127.49 187.668 -127.49C185.591 -127.49 183.499 -127.478 181.419 -127.453C-113.004 -124.099 -349.804 118.159 -346.453 412.582C-343.121 704.952 -104.232 940.487 187.411 940.487C189.455 940.487 191.535 940.473 193.582 940.453C488.004 937.099 724.804 694.838 721.453 400.416C719.825 257.791 662.758 124.338 560.761 24.6368ZM558.109 767.697C461.629 866.691 332.376 922.19 194.153 923.965C191.866 923.996 189.599 924.01 187.317 924.01C51.6366 924.004 -76.3452 871.993 -173.697 777.109C-272.691 680.629 -328.19 551.373 -329.968 413.153C-331.742 274.933 -279.589 144.294 -183.109 45.3C-86.6286 -53.6938 42.624 -109.19 180.847 -110.968C183.134 -110.996 185.404 -111.013 187.683 -111.013C323.366 -111.013 451.345 -58.9955 548.697 35.8883C647.691 132.369 703.19 261.624 704.965 399.844C706.742 538.064 654.589 668.706 558.109 767.697ZM707.795 399.81C706.012 260.831 650.21 130.868 550.676 33.8616C451.141 -63.1451 319.879 -115.596 180.81 -113.798C41.8343 -112.012 -88.1288 -56.2102 -185.136 43.3242C-282.142 142.859 -334.582 274.212 -332.798 413.187C-331.009 552.166 -275.21 682.129 -175.676 779.135C-77.7831 874.546 50.8836 926.844 187.317 926.841C189.602 926.841 191.9 926.827 194.19 926.795C333.166 925.012 463.129 869.21 560.135 769.676C657.142 670.141 709.581 538.786 707.795 399.81ZM194.759 910.31C192.282 910.347 189.859 910.364 187.394 910.364C-87.0645 910.338 -312.345 689.084 -316.31 413.756C-318.252 279.182 -267.67 151.911 -173.881 55.3825C-80.0957 -41.1458 45.6697 -95.374 180.241 -97.313C182.718 -97.3498 185.141 -97.3668 187.606 -97.3668C462.062 -97.3668 687.344 123.914 691.313 399.241C695.315 677.045 472.563 906.308 194.759 910.31ZM187.609 -100.197C185.143 -100.197 182.672 -100.18 180.201 -100.144C44.8715 -98.1933 -81.5959 -43.6622 -175.914 53.4096C-270.226 150.481 -321.094 278.469 -319.141 413.799C-315.152 690.686 -88.6299 913.194 187.391 913.194C189.856 913.194 192.328 913.177 194.799 913.141C474.162 909.116 698.169 678.562 694.144 399.198C690.152 122.309 463.63 -100.197 187.609 -100.197ZM539.654 747.532C448.56 841.598 326.287 894.558 195.362 896.656C192.661 896.701 189.978 896.721 187.283 896.721C59.3555 896.718 -61.411 847.868 -153.532 758.651C-247.598 667.557 -300.558 545.287 -302.655 414.362C-304.756 283.434 -255.747 159.528 -164.651 65.465C-73.5599 -28.5979 48.7125 -81.558 179.638 -83.6583C182.31 -83.7007 184.957 -83.7234 187.617 -83.7234C454.283 -83.7234 673.364 131.035 677.658 398.635C679.759 529.564 630.747 653.469 539.654 747.532ZM179.593 -86.4889C47.9115 -84.3772 -75.0657 -31.1114 -166.686 63.4949C-258.306 158.104 -307.598 282.723 -305.486 414.404C-303.374 546.089 -250.111 669.066 -155.502 760.686C-62.8405 850.421 58.6054 899.551 187.283 899.551C189.987 899.551 192.698 899.531 195.407 899.486C327.089 897.375 450.069 844.112 541.689 749.502C633.306 654.896 682.6 530.274 680.489 398.593C676.124 126.758 451.32 -90.8423 179.593 -86.4889ZM530.426 737.45C442.027 829.047 323.245 880.739 195.968 883.001C193.097 883.052 190.236 883.077 187.374 883.077C-71.502 883.074 -284.384 674.84 -289.004 414.965C-293.668 152.222 -83.7075 -65.336 179.035 -70.0036C181.905 -70.0545 184.767 -70.08 187.626 -70.08C446.502 -70.08 659.384 138.157 664.004 398.032C666.265 525.309 618.828 645.852 530.426 737.45ZM178.984 -72.8342C-85.3209 -68.1382 -296.527 150.711 -291.834 415.016C-287.186 676.448 -73.0645 885.908 187.374 885.908C190.236 885.908 193.146 885.879 196.019 885.831C324.051 883.555 443.536 831.558 532.464 739.414C621.389 647.273 669.107 526.017 666.834 397.981C662.138 133.676 443.233 -77.5471 178.984 -72.8342ZM521.198 727.367C435.488 816.502 320.202 866.923 196.571 869.346C72.8234 871.752 -44.2351 825.9 -133.367 740.195C-222.502 654.488 -272.926 539.202 -275.349 415.571C-277.772 291.939 -231.905 174.762 -146.198 85.6301C-60.4883 -3.50482 54.7983 -53.9259 178.429 -56.3489C181.54 -56.4111 184.643 -56.4394 187.742 -56.4394C307.934 -56.4394 421.477 -10.7511 508.367 72.8019C597.502 158.509 647.926 273.798 650.349 397.427C652.772 521.06 606.905 638.235 521.198 727.367ZM178.373 -59.1795C53.9859 -56.7423 -62.0055 -6.00989 -148.236 83.6685C-234.467 173.347 -280.617 291.238 -278.179 415.624C-275.739 540.011 -225.007 656.003 -135.332 742.233C-47.9007 826.304 66.3187 872.267 187.255 872.267C190.369 872.267 193.505 872.236 196.627 872.177C321.014 869.737 437.005 819.007 523.236 729.332C609.467 639.65 655.616 521.76 653.179 397.373C648.144 140.597 435.123 -64.283 178.373 -59.1795ZM511.968 717.285C428.955 803.954 317.159 853.107 197.173 855.691C77.1796 858.327 -36.618 813.98 -123.287 730.968C-209.954 647.955 -259.107 536.156 -261.691 416.174C-264.276 296.188 -219.983 182.382 -136.968 95.7126C-53.9553 9.04312 57.8411 -40.1098 177.826 -42.6942C181.144 -42.7649 184.45 -42.8017 187.756 -42.8017C304.076 -42.8017 414.013 1.31281 498.287 82.0296C584.954 165.045 634.107 276.838 636.691 396.824C639.276 516.809 594.983 630.618 511.968 717.285ZM500.243 79.9858C413.033 -3.55014 298.562 -48.1232 177.767 -45.5247C57.0259 -42.9234 -55.4753 6.54089 -139.014 93.7538C-222.547 180.97 -267.123 295.495 -264.522 416.233C-261.921 536.974 -212.459 649.475 -125.243 733.014C-40.4337 814.246 70.1853 858.629 187.241 858.629C190.564 858.629 193.904 858.595 197.233 858.522C317.974 855.921 430.475 806.459 514.014 719.243C597.547 632.03 642.123 517.503 639.522 396.764C636.921 276.023 587.459 163.522 500.243 79.9858ZM502.74 707.202C422.419 791.406 314.113 839.291 197.779 842.037C194.289 842.119 190.827 842.161 187.354 842.161C-48.13 842.15 -242.455 653.444 -248.037 416.776C-253.703 176.622 -62.9339 -23.3727 177.221 -29.0395C417.282 -34.7459 617.373 156.063 623.037 396.221C625.785 512.557 583.06 622.998 502.74 707.202ZM177.156 -31.8701C-64.5615 -26.1664 -256.571 175.127 -250.867 416.844C-245.246 655.063 -49.6811 844.992 187.354 844.992C190.836 844.992 194.349 844.949 197.844 844.867C314.937 842.104 423.945 793.908 504.789 709.158C585.631 624.405 628.633 513.245 625.867 396.153C620.161 154.436 418.844 -37.4406 177.156 -31.8701ZM493.509 697.122C415.884 778.861 311.07 825.478 198.382 828.382C85.6403 831.309 -21.3839 790.135 -103.122 712.507C-184.861 634.881 -231.478 530.067 -234.382 417.379C-237.289 304.691 -196.138 197.616 -118.509 115.878C-40.8837 34.139 63.9297 -12.4778 176.618 -15.3848C180.312 -15.481 183.983 -15.5263 187.654 -15.5263C415.349 -15.5263 603.477 166.681 609.385 395.618C612.289 508.306 571.138 615.384 493.509 697.122ZM176.547 -18.2153C63.1004 -15.2885 -42.415 31.6396 -120.564 113.927C-198.711 196.212 -240.139 304.006 -237.213 417.453C-234.286 530.897 -187.358 636.412 -105.07 714.562C-25.5023 790.13 77.8987 831.357 187.216 831.357C190.949 831.357 194.708 831.309 198.453 831.213C311.9 828.286 417.415 781.358 495.564 699.07C573.711 616.785 615.139 508.988 612.215 395.544C606.175 161.356 410.724 -24.2728 176.547 -18.2153ZM484.285 687.037C409.348 766.313 308.027 811.662 198.988 814.727C89.923 817.781 -13.7668 778.216 -93.0399 703.282C-172.313 628.348 -217.662 527.027 -220.73 417.982C-227.062 192.886 -49.0811 4.60196 176.012 -1.73004C179.915 -1.84045 183.779 -1.89423 187.657 -1.89423C407.556 -1.89423 589.506 173.817 595.73 395.015C598.798 504.054 559.216 607.764 484.285 687.037ZM175.936 -4.56064C-50.7228 1.81665 -229.935 191.406 -223.561 418.061C-217.291 640.805 -34.1016 817.722 187.34 817.722C191.232 817.722 195.15 817.668 199.064 817.558C308.862 814.47 410.885 768.807 486.34 688.984C561.791 609.162 601.646 504.734 598.561 394.936C592.18 168.277 402.506 -10.8813 175.936 -4.56064ZM475.054 676.957C402.809 753.768 304.982 797.846 199.585 801.07C94.248 804.308 -6.14969 766.293 -82.9602 694.051C-159.768 621.809 -203.846 523.982 -207.073 418.585C-210.302 313.191 -172.296 212.848 -100.054 136.04C-27.8093 59.2321 70.0183 15.1543 175.412 11.9247C392.874 5.28412 575.406 176.843 582.073 394.409C585.302 499.806 547.296 600.15 475.054 676.957ZM175.324 9.09409C69.1748 12.3464 -29.3548 56.7412 -102.115 134.101C-174.875 211.461 -213.155 312.523 -209.903 418.673C-206.651 524.822 -162.256 623.352 -84.8963 696.112C-10.5767 766.019 85.6148 804.093 187.19 804.093C191.337 804.093 195.509 804.028 199.676 803.9C305.825 800.651 404.355 756.256 477.115 678.896C549.875 601.537 588.155 500.474 584.903 394.324C578.189 175.195 394.527 2.40543 175.324 9.09409ZM465.824 666.875C396.276 741.22 301.939 784.03 200.191 787.418C98.4401 790.843 1.4646 754.371 -72.8748 684.824C-147.22 615.273 -190.03 520.936 -193.418 419.188C-196.812 317.443 -160.371 220.465 -90.8235 146.122C-21.2734 71.78 73.064 28.9675 174.812 25.5793C179.16 25.435 183.493 25.3614 187.821 25.3614C284.8 25.3614 376.711 61.5956 447.878 128.174C522.22 197.724 565.03 292.061 568.418 393.809C571.809 495.554 535.374 592.533 465.824 666.875ZM174.716 22.7516C72.212 26.1653 -22.8246 69.292 -92.8927 144.189C-162.958 219.083 -199.662 316.781 -196.248 419.284C-189.345 626.556 -18.5334 790.464 187.332 790.464C191.628 790.464 195.959 790.393 200.287 790.248C411.884 783.197 578.297 605.313 571.248 393.713C564.2 182.116 386.341 15.6355 174.716 22.7516ZM456.596 656.795C389.738 728.672 298.893 770.214 200.791 773.763C196.282 773.927 191.807 774.009 187.326 774.009C-9.22083 773.998 -172.599 617.79 -179.763 419.791C-187.094 217.28 -28.3018 46.5624 174.209 39.2312C376.703 31.883 547.435 190.695 554.763 393.206C558.315 491.306 523.451 584.916 456.596 656.795ZM187.674 36.16C183.173 36.16 178.639 36.2393 174.104 36.4035C-29.9633 43.7913 -189.979 215.825 -182.594 419.893C-175.37 619.432 -10.7522 776.84 187.326 776.84C191.827 776.84 196.361 776.758 200.896 776.594C299.751 773.013 391.297 731.154 458.668 658.72C526.041 586.291 561.172 491.957 557.594 393.104C550.37 193.566 385.752 36.16 187.674 36.16ZM447.368 646.713C383.202 716.127 295.847 756.398 201.394 760.109C196.633 760.295 191.9 760.389 187.159 760.389C97.9136 760.383 13.2001 727.294 -52.7127 666.365C-122.127 602.202 -162.398 514.847 -166.108 420.394C-169.819 325.94 -136.532 235.696 -72.3654 166.285C-8.20187 96.8703 79.1526 56.5996 173.606 52.8888C178.319 52.7019 183.001 52.6114 187.677 52.6114C376.451 52.6114 533.633 202.335 541.111 392.603C544.822 487.057 511.532 577.301 447.368 646.713ZM173.496 50.061C78.2864 53.8002 -9.76715 94.3935 -74.443 164.363C-139.122 234.329 -172.678 325.295 -168.939 420.504C-165.197 515.714 -124.604 603.764 -54.6346 668.443C11.8103 729.861 97.189 763.219 187.156 763.219C191.926 763.219 196.712 763.126 201.504 762.939C296.714 759.197 384.767 718.604 449.443 648.635C514.122 578.666 547.681 487.699 543.942 392.493C536.214 195.955 370.13 42.3505 173.496 50.061ZM201.997 746.454C197.077 746.663 192.197 746.768 187.32 746.768C6.32181 746.757 -144.672 603.529 -152.457 420.997C-160.45 233.545 -14.4489 74.537 173.003 66.5435C360.447 58.5697 519.46 204.548 527.456 392C535.45 579.455 389.449 738.46 201.997 746.454ZM172.882 63.7157C-16.1275 71.7772 -163.343 232.107 -155.287 421.119C-147.435 605.18 4.80182 749.599 187.32 749.599C192.226 749.599 197.168 749.494 202.119 749.284C391.128 741.223 538.343 580.893 530.287 391.879C522.226 202.87 361.888 55.6599 172.882 63.7157ZM428.907 626.553C370.127 691.034 289.756 728.768 202.597 732.799C115.435 736.804 31.9272 706.681 -32.5533 647.904C-97.0339 589.127 -134.768 508.753 -138.802 421.597C-147.127 241.674 -7.51688 88.5229 172.403 80.1982C352.306 71.8904 505.474 211.477 513.802 391.4C517.835 478.559 487.687 562.073 428.907 626.553ZM172.27 77.3704C-9.20953 85.7659 -150.025 240.247 -141.627 421.727C-137.562 509.639 -99.5021 590.707 -34.4611 649.996C26.7246 705.77 104.894 735.986 187.136 735.986C192.316 735.986 197.519 735.867 202.73 735.624C290.642 731.559 371.71 693.502 430.999 628.458C490.288 563.417 520.697 479.185 516.627 391.27C508.231 209.788 353.815 68.9976 172.27 77.3704ZM203.2 719.147C197.875 719.413 192.596 719.546 187.32 719.546C21.8589 719.535 -116.757 589.266 -125.147 422.197C-133.803 249.804 -0.593292 102.509 171.8 93.8529C344.23 85.1573 491.491 218.407 500.147 390.8C508.803 563.194 375.593 710.488 203.2 719.147ZM171.656 91.0251C-2.29443 99.7603 -136.707 248.388 -127.972 422.339C-119.509 590.928 20.3474 722.377 187.32 722.377C192.63 722.377 197.98 722.244 203.344 721.972C377.294 713.237 511.707 564.609 502.972 390.659C494.237 216.706 345.674 82.256 171.656 91.0251ZM410.446 606.391C357.05 665.944 283.665 701.139 203.8 705.492C123.975 709.849 47.1558 682.839 -12.3939 629.446C-71.9436 576.05 -107.139 502.662 -111.492 422.797C-120.48 257.936 6.336 116.495 171.2 107.505C336.008 98.5573 477.503 225.333 486.492 390.2C490.846 470.062 463.839 546.841 410.446 606.391ZM171.044 104.68C4.6235 113.755 -123.389 256.532 -114.317 422.953C-109.921 503.57 -74.3949 577.655 -14.2819 631.552C41.6361 681.69 112.596 708.779 187.122 708.776C192.713 708.776 198.328 708.623 203.953 708.317C284.573 703.921 358.655 668.395 412.552 608.282C466.452 548.169 493.713 470.662 489.317 390.044C480.245 223.624 337.491 95.5739 171.044 104.68ZM204.403 691.838C198.668 692.177 192.987 692.342 187.32 692.342C37.3761 692.327 -88.8591 575 -97.8377 423.397C-102.35 347.181 -76.9141 273.77 -26.2128 216.683C24.4857 159.599 94.384 125.677 170.6 121.159C327.946 111.87 463.52 232.265 472.841 389.6C482.159 546.935 361.738 682.519 204.403 691.838ZM170.436 118.335C93.4612 122.895 22.8723 157.156 -28.33 214.803C-79.5352 272.457 -105.223 346.595 -100.663 423.567C-91.5963 576.679 35.8787 695.172 187.317 695.172C193.032 695.172 198.787 695.005 204.567 694.663C363.461 685.251 485.074 548.325 475.665 389.43C466.251 230.536 329.257 108.917 170.436 118.335ZM391.982 586.234C343.973 640.853 277.568 673.507 205 678.18C199.064 678.562 193.182 678.752 187.317 678.752C45.1206 678.743 -74.9157 567.873 -84.183 423.997C-93.8325 274.192 20.1973 144.464 170 134.817C319.825 125.134 449.534 239.194 459.183 389C463.859 461.57 439.992 531.616 391.982 586.234ZM169.819 131.989C18.4537 141.741 -96.7565 272.816 -87.0108 424.181C-77.6444 569.557 43.6317 681.583 187.315 681.583C193.23 681.583 199.195 681.39 205.181 681.005C278.504 676.286 345.6 643.29 394.108 588.103C442.618 532.915 466.729 462.142 462.008 388.816C452.259 237.457 321.283 122.238 169.819 131.989ZM382.752 576.155C337.434 628.308 274.519 659.694 205.597 664.526C63.324 674.549 -60.5477 566.873 -70.5283 424.597C-80.5089 282.318 27.1266 158.447 169.403 148.469C175.534 148.039 181.625 147.826 187.68 147.826C322.138 147.826 435.978 252.255 445.528 388.4C450.363 457.324 428.069 524.002 382.752 576.155ZM169.205 145.644C25.3716 155.732 -83.4414 280.96 -73.3533 424.795C-63.6982 562.441 51.3733 668.013 187.317 667.999C193.429 667.999 199.605 667.786 205.795 667.35C275.47 662.465 339.076 630.737 384.886 578.015C430.702 525.289 453.242 457.879 448.353 388.202C438.265 244.369 313.06 135.564 169.205 145.644ZM206.195 650.874C71.3855 661.211 -46.5647 559.939 -56.8765 425.195C-61.8696 359.919 -41.1441 296.607 1.48157 246.919C44.1072 197.231 103.529 167.117 168.803 162.124C303.564 151.798 421.565 253.056 431.876 387.803C442.185 522.552 340.944 640.565 206.195 650.874ZM168.587 159.301C102.559 164.351 42.4513 194.814 -0.669678 245.076C-43.785 295.339 -64.7483 359.381 -59.6985 425.41C-49.7575 555.316 59.1262 654.434 187.326 654.429C193.641 654.429 200.015 654.188 206.412 653.698C342.716 643.268 445.126 523.894 434.698 387.587C424.271 251.281 304.874 148.896 168.587 159.301ZM364.285 556.001C324.351 603.224 268.419 632.067 206.789 637.222C145.187 642.362 85.2185 623.219 37.9988 583.285C-9.22369 543.351 -38.0673 487.419 -43.2218 425.789C-48.3734 364.162 -29.2189 304.216 10.7149 256.996C50.6487 209.773 106.581 180.93 168.211 175.778C229.813 170.632 289.781 189.781 337.001 229.712C384.224 269.646 413.067 325.581 418.222 387.208C423.373 448.836 404.219 508.781 364.285 556.001ZM338.83 227.552C291.033 187.129 230.351 167.734 167.973 172.959C105.59 178.173 48.9758 207.367 8.55234 255.167C-31.8683 302.965 -51.2578 363.644 -46.041 426.024C-40.8242 488.407 -11.6297 545.024 36.1703 585.448C78.861 621.552 131.827 640.876 187.105 640.876C193.717 640.876 200.364 640.599 207.027 640.041C269.407 634.824 326.024 605.63 366.448 557.83C406.868 510.033 426.258 449.354 421.041 386.973C415.824 324.59 386.63 267.973 338.83 227.552ZM355.052 545.927C317.81 590.681 265.371 618.257 207.386 623.567C149.402 628.88 92.8271 611.294 48.0728 574.049C3.31857 536.807 -24.2569 484.365 -29.5671 426.386C-40.5327 306.692 47.92 200.396 167.614 189.43C287.268 178.445 393.601 266.92 404.567 386.611C409.88 444.592 392.297 501.173 355.052 545.927ZM167.353 186.611C46.1113 197.721 -43.4907 305.399 -32.3863 426.644C-27.0025 485.378 0.926758 538.5 46.2641 576.226C86.2969 609.539 135.668 627.326 187.111 627.326C193.924 627.326 200.777 627.012 207.647 626.386C266.378 621.003 319.503 593.073 357.228 547.736C394.954 502.401 412.767 445.088 407.389 386.353C396.276 265.108 288.627 175.521 167.353 186.611ZM345.818 535.85C311.268 578.142 262.316 604.444 207.981 609.912C95.8049 621.189 -4.62119 539.142 -15.9152 426.978C-21.3867 372.645 -5.37128 319.433 29.1816 277.147C63.7316 234.858 112.684 208.556 167.019 203.085C279.206 191.788 379.618 273.858 390.915 386.019C396.384 440.352 380.371 493.564 345.818 535.85ZM166.736 200.268C111.65 205.816 62.0191 232.48 26.9907 275.355C-8.0405 318.227 -24.2767 372.175 -18.7288 427.264C-7.98953 533.954 82.3144 613.782 187.346 613.779C194.261 613.779 201.238 613.434 208.264 612.726C263.35 607.181 312.981 580.517 348.009 537.642C383.041 494.77 399.277 440.819 393.729 385.733C382.279 272.021 280.483 188.802 166.736 200.268ZM208.572 596.258C103.954 607.88 9.36185 532.205 -2.2605 427.572C-13.88 322.937 61.7955 228.356 166.431 216.737C173.555 215.947 180.632 215.559 187.643 215.559C283.56 215.559 366.431 287.917 377.26 385.425C388.88 490.06 313.207 584.641 208.572 596.258ZM166.114 213.923C59.933 225.715 -16.8634 321.697 -5.07404 427.884C5.91708 526.843 90.0107 600.277 187.354 600.266C194.465 600.266 201.66 599.872 208.889 599.071C315.07 587.282 391.863 491.3 380.074 385.114C368.285 278.93 272.373 202.154 166.114 213.923ZM209.161 582.609C201.835 583.509 194.575 583.945 187.374 583.945C99.1223 583.939 22.4391 517.941 11.3914 428.161C5.60571 381.122 18.4848 334.644 47.6567 297.289C76.8259 259.937 118.798 236.177 165.839 230.391C262.936 218.449 351.661 287.73 363.609 384.836C375.554 481.942 306.27 570.661 209.161 582.609ZM165.491 227.581C117.702 233.46 75.0596 257.596 45.4263 295.548C15.7873 333.498 2.70438 380.718 8.58347 428.506C19.8039 519.724 97.707 586.775 187.371 586.775C194.683 586.775 202.07 586.331 209.509 585.417C308.166 573.282 378.554 483.145 366.417 384.491C354.282 285.837 264.173 215.443 165.491 227.581ZM318.107 505.64C291.624 540.526 253.142 563.013 209.75 568.957C166.346 574.898 123.247 563.587 88.3604 537.107C53.4736 510.624 30.9874 472.143 25.0432 428.75C19.1019 385.354 30.4128 342.245 56.8929 307.358C83.3758 272.471 121.857 249.987 165.25 244.043C172.805 243.01 180.349 242.498 187.841 242.498C223.402 242.498 257.827 254.021 286.64 275.893C321.526 302.373 344.013 340.855 349.957 384.247C355.898 427.643 344.587 470.753 318.107 505.64ZM288.352 273.637C252.862 246.698 209.008 235.195 164.868 241.238C120.722 247.284 81.5784 270.158 54.637 305.648C27.7012 341.135 16.1949 384.989 22.241 429.135C28.2871 473.275 51.161 512.422 86.6479 539.36C115.964 561.611 150.978 573.333 187.153 573.33C194.773 573.33 202.453 572.812 210.132 571.759C254.278 565.713 293.424 542.839 320.36 507.349C347.299 471.862 358.805 428.008 352.759 383.862C346.713 339.722 323.839 300.576 288.352 273.637ZM308.868 495.571C285.074 527.99 250.08 549.205 210.333 555.302C170.592 561.393 130.842 551.656 98.426 527.865C66.0074 504.074 44.7979 469.08 38.698 429.333C32.5981 389.586 42.3438 349.842 66.1348 317.426C89.9258 285.007 124.92 263.792 164.667 257.695C172.372 256.512 180.02 255.94 187.589 255.94C260.598 255.94 324.895 309.319 336.305 383.664C342.405 423.411 332.659 463.155 308.868 495.571ZM164.234 254.896C80.6443 267.724 23.0704 346.168 35.8986 429.763C47.5237 505.509 113.018 559.888 187.408 559.888C195.113 559.888 202.917 559.304 210.766 558.101C294.359 545.273 351.932 466.827 339.104 383.234C326.27 299.641 247.838 242.082 164.234 254.896ZM299.623 485.511C278.519 515.462 247.014 535.397 210.913 541.653C174.809 547.906 138.439 539.725 108.489 518.621C78.5412 497.516 58.6027 466.011 52.347 429.91C46.0943 393.812 54.2719 357.436 75.3766 327.486C96.4814 297.536 127.986 277.6 164.087 271.344C171.979 269.98 179.819 269.32 187.569 269.32C253.01 269.32 311.11 316.452 322.656 383.087C328.909 419.185 320.728 455.561 299.623 485.511ZM163.606 268.556C126.757 274.939 94.6047 295.288 73.0612 325.855C51.5233 356.426 43.176 393.549 49.5617 430.394C55.9418 467.24 76.2909 499.395 106.858 520.936C130.729 537.758 158.593 546.533 187.201 546.53C195.229 546.53 203.324 545.839 211.394 544.441C248.243 538.058 280.395 517.709 301.939 487.142C323.48 456.574 331.827 419.448 325.441 382.603C312.265 306.542 239.666 255.383 163.606 268.556ZM211.491 528.004C203.421 529.598 195.387 530.362 187.459 530.362C129.537 530.356 77.6326 489.415 65.9932 430.488C52.7688 363.488 96.5125 298.221 163.509 284.993C230.537 271.763 295.777 315.515 309.007 382.509C322.231 449.509 278.487 514.777 211.491 528.004ZM162.963 282.216C94.4349 295.747 49.6891 362.506 63.2192 431.034C75.119 491.314 128.209 533.192 187.456 533.192C195.566 533.192 203.789 532.408 212.037 530.781C280.565 517.251 325.311 450.491 311.781 381.963C298.253 313.435 231.486 268.695 162.963 282.216ZM281.131 465.403C265.396 490.414 240.866 507.799 212.054 514.358C152.6 527.894 93.1838 490.527 79.6395 431.054C73.081 402.244 78.1335 372.602 93.8716 347.594C109.604 322.583 134.134 305.198 162.946 298.639C171.177 296.766 179.403 295.868 187.513 295.868C237.979 295.868 283.69 330.704 295.358 381.943C301.919 410.753 296.866 440.395 281.131 465.403ZM162.318 295.88C132.769 302.605 107.611 320.438 91.4741 346.086C75.337 371.736 70.1542 402.134 76.8825 431.679C88.8445 484.235 135.727 519.959 187.487 519.959C195.801 519.959 204.244 519.039 212.682 517.117C242.231 510.392 267.392 492.559 283.529 466.912C299.663 441.261 304.846 410.863 298.117 381.318C284.234 320.322 223.308 281.99 162.318 295.88ZM271.878 455.363C258.823 477.903 237.778 494.009 212.611 500.714C160.639 514.564 107.13 483.555 93.2856 431.609C86.5771 406.442 90.0701 380.171 103.122 357.634C116.177 335.094 137.222 318.988 162.391 312.283C187.555 305.577 213.826 309.07 236.366 322.122C258.903 335.174 275.009 356.222 281.714 381.389C288.423 406.555 284.93 432.826 271.878 455.363ZM237.784 319.673C214.593 306.24 187.555 302.642 161.661 309.548C135.764 316.449 114.105 333.022 100.674 356.213C87.2424 379.407 83.6476 406.439 90.5485 432.339C102.502 477.175 143.172 506.848 187.524 506.845C196.05 506.845 204.72 505.747 213.342 503.449C239.236 496.548 260.895 479.975 274.327 456.784C287.758 433.59 291.352 406.555 284.451 380.658C277.548 354.761 260.975 333.102 237.784 319.673ZM262.619 445.34C252.242 465.403 234.676 480.227 213.152 487.079C191.631 493.932 168.726 491.993 148.66 481.616C128.594 471.242 113.773 453.673 106.921 432.149C100.068 410.626 102.01 387.723 112.384 367.657C122.758 347.594 140.324 332.771 161.845 325.918C170.348 323.212 178.962 321.927 187.442 321.927C223.286 321.927 256.641 344.917 268.079 380.845C274.932 402.369 272.993 425.274 262.619 445.34ZM227.639 328.867C206.902 318.142 183.227 316.141 160.99 323.22C138.745 330.302 120.589 345.621 109.867 366.358C99.1478 387.095 97.1409 410.764 104.223 433.01C111.305 455.255 126.624 473.411 147.361 484.13C159.954 490.643 173.623 493.938 187.402 493.938C196.313 493.938 205.275 492.557 214.01 489.777C236.255 482.695 254.411 467.376 265.133 446.639C275.855 425.902 277.859 402.23 270.777 379.987C263.695 357.742 248.376 339.587 227.639 328.867ZM213.673 473.453C195.789 480.445 176.255 480.054 158.661 472.352C141.074 464.647 127.536 450.557 120.547 432.673C113.553 414.786 113.946 395.25 121.648 377.661C129.35 360.071 143.443 346.533 161.327 339.544C198.241 325.108 240.026 343.405 254.456 380.324C268.889 417.246 250.592 459.023 213.673 473.453ZM160.3 336.906C141.708 344.172 127.06 358.243 119.055 376.526C111.048 394.808 110.643 415.112 117.909 433.703C125.175 452.292 139.246 466.937 157.528 474.945C167.135 479.151 177.297 481.26 187.479 481.26C196.672 481.26 205.88 479.539 214.7 476.091C233.292 468.825 247.94 454.754 255.945 436.472C263.952 418.189 264.357 397.885 257.094 379.294C242.089 340.92 198.662 321.907 160.3 336.906ZM214.163 459.852C184.744 474.551 148.85 462.578 134.145 433.16C119.446 403.742 131.419 367.847 160.837 353.145C169.374 348.882 178.452 346.861 187.402 346.861C209.3 346.861 230.416 358.953 240.855 379.837C255.554 409.256 243.581 445.15 214.163 459.852ZM159.572 350.615C128.758 366.013 116.216 403.611 131.614 434.428C142.546 456.303 164.664 468.967 187.6 468.967C196.975 468.967 206.489 466.849 215.428 462.383C230.356 454.924 241.483 442.099 246.762 426.267C252.047 410.439 250.844 393.498 243.385 378.569C227.987 347.758 190.386 335.213 159.572 350.615ZM234.806 415.471C232.409 428.107 225.233 439.053 214.604 446.294C203.973 453.534 191.159 456.203 178.529 453.803C165.89 451.406 154.944 444.233 147.704 433.604C132.761 411.659 138.453 381.649 160.396 366.703C168.48 361.198 177.827 358.336 187.4 358.336C190.411 358.336 193.448 358.619 196.471 359.194C209.11 361.591 220.056 368.764 227.297 379.393C234.534 390.025 237.204 402.836 234.806 415.471ZM196.998 356.412C183.618 353.881 170.054 356.697 158.802 364.365C135.569 380.188 129.54 411.962 145.365 435.195C153.031 446.452 164.622 454.047 178.002 456.586C181.203 457.191 184.416 457.494 187.606 457.494C197.742 457.491 207.638 454.463 216.198 448.632C227.452 440.966 235.049 429.378 237.586 415.998C240.125 402.621 237.3 389.054 229.635 377.802C221.969 366.545 210.378 358.951 196.998 356.412ZM214.986 432.829C200.471 447.984 176.326 448.502 161.169 433.983C153.826 426.952 149.665 417.481 149.447 407.317C149.226 397.152 152.983 387.508 160.014 380.169C174.529 365.014 198.674 364.493 213.831 379.014C221.171 386.045 225.335 395.516 225.553 405.681C225.771 415.845 222.017 425.486 214.986 432.829ZM157.967 378.21C150.412 386.096 146.382 396.456 146.617 407.376C146.852 418.296 151.324 428.472 159.213 436.027C167.124 443.607 177.311 447.372 187.493 447.372C198.258 447.372 209.014 443.157 217.033 434.787C224.588 426.901 228.618 416.541 228.383 405.621C228.149 394.701 223.676 384.525 215.787 376.97C199.512 361.376 173.575 361.925 157.967 378.21Z" fill="url(#paint0_radial_40_6759)"/>
<defs>
<radialGradient id="paint0_radial_40_6759" cx="0" cy="0" r="1" gradientUnits="userSpaceOnUse" gradientTransform="translate(187.5 406.5) rotate(90) scale(589.807)">
<stop stop-color="white" stop-opacity="0.01"/>
<stop offset="0.237022" stop-color="white" stop-opacity="0.3"/>
<stop offset="0.432108" stop-color="white"/>
<stop offset="0.784862" stop-color="white" stop-opacity="0.169213"/>
<stop offset="1" stop-color="white" stop-opacity="0"/>
</radialGradient>
</defs>
</svg>
