<svg width="17" height="20" viewBox="0 0 17 20" fill="none" xmlns="http://www.w3.org/2000/svg">
<path d="M12.3487 0C12.3953 0 12.4418 0 12.491 0C12.6052 1.41044 12.0668 2.46432 11.4125 3.22751C10.7705 3.98542 9.89141 4.7205 8.46955 4.60897C8.37471 3.21872 8.91394 2.24301 9.56735 1.48158C10.1733 0.771967 11.2843 0.140517 12.3487 0Z" fill="black"/>
<path d="M16.6529 14.6805C16.6529 14.6946 16.6529 14.7069 16.6529 14.7201C16.2533 15.9303 15.6834 16.9675 14.9878 17.93C14.3528 18.8038 13.5747 19.9798 12.1854 19.9798C10.9848 19.9798 10.1874 19.2078 8.95697 19.1868C7.65543 19.1657 6.93967 19.8323 5.74967 20C5.61354 20 5.47742 20 5.34392 20C4.47008 19.8735 3.76486 19.1815 3.25109 18.5579C1.73614 16.7154 0.565458 14.3354 0.347656 11.2897C0.347656 10.9911 0.347656 10.6934 0.347656 10.3948C0.439871 8.21499 1.49902 6.44272 2.90683 5.5838C3.64981 5.12712 4.6712 4.73807 5.80851 4.91196C6.29593 4.98748 6.79389 5.15435 7.23037 5.31946C7.64402 5.47842 8.16129 5.76033 8.65135 5.7454C8.98332 5.73574 9.31354 5.56273 9.64814 5.44065C10.6283 5.08672 11.589 4.68098 12.8555 4.87156C14.3774 5.10165 15.4577 5.77789 16.1251 6.82124C14.8376 7.64063 13.8197 8.87542 13.9936 10.9841C14.1482 12.8995 15.2618 14.0201 16.6529 14.6805Z" fill="black"/>
</svg>
