<svg width="25" height="24" viewBox="0 0 25 24" fill="none" xmlns="http://www.w3.org/2000/svg">
<path opacity="0.4" d="M20.9 16.3298C20.62 17.0798 20.03 17.6498 19.26 17.9098C18.18 18.2698 17.07 18.5398 15.95 18.7298C15.84 18.7498 15.73 18.7698 15.62 18.7798C15.44 18.8098 15.26 18.8298 15.08 18.8498C14.86 18.8798 14.63 18.8998 14.4 18.9198C13.77 18.9698 13.15 18.9998 12.52 18.9998C11.88 18.9998 11.24 18.9698 10.61 18.9098C10.34 18.8898 10.08 18.8598 9.82 18.8198C9.67 18.7998 9.52 18.7798 9.38 18.7598C9.27 18.7398 9.16 18.7298 9.05 18.7098C7.94 18.5298 6.84 18.2598 5.77 17.8998C4.97 17.6298 4.36 17.0598 4.09 16.3298C3.82 15.6098 3.92 14.7698 4.35 14.0498L5.48 12.1698C5.72 11.7598 5.94 10.9698 5.94 10.4898V8.6298C5.94 4.9998 8.89 2.0498 12.52 2.0498C16.14 2.0498 19.09 4.9998 19.09 8.6298V10.4898C19.09 10.9698 19.31 11.7598 19.56 12.1698L20.69 14.0498C21.1 14.7498 21.18 15.5698 20.9 16.3298Z" fill="#14142B"/>
<path d="M12.5 10.7601C12.08 10.7601 11.74 10.4201 11.74 10.0001V6.90014C11.74 6.48014 12.08 6.14014 12.5 6.14014C12.92 6.14014 13.26 6.48014 13.26 6.90014V10.0001C13.25 10.4201 12.91 10.7601 12.5 10.7601Z" fill="#14142B"/>
<path d="M15.33 20.01C14.91 21.17 13.8 22 12.5 22C11.71 22 10.93 21.68 10.38 21.11C10.06 20.81 9.82 20.41 9.68 20C9.81 20.02 9.94 20.03 10.08 20.05C10.31 20.08 10.55 20.11 10.79 20.13C11.36 20.18 11.94 20.21 12.52 20.21C13.09 20.21 13.66 20.18 14.22 20.13C14.43 20.11 14.64 20.1 14.84 20.07C15 20.05 15.16 20.03 15.33 20.01Z" fill="#14142B"/>
</svg>
