<svg width="20" height="20" viewBox="0 0 20 20" fill="none" xmlns="http://www.w3.org/2000/svg">
<path fill-rule="evenodd" clip-rule="evenodd" d="M4.1863 10.0001C4.1863 9.35053 4.29654 8.72777 4.49329 8.14366L1.04937 5.56991C0.378162 6.9036 0 8.4064 0 10.0001C0 11.5924 0.377697 13.0943 1.04797 14.4271L4.49004 11.8484C4.29514 11.267 4.1863 10.6465 4.1863 10.0001Z" fill="#FBBC05"/>
<path fill-rule="evenodd" clip-rule="evenodd" d="M10.2333 4.09109C11.6752 4.09109 12.9776 4.59111 14.0009 5.40933L16.9779 2.50011C15.1638 0.954588 12.8381 0 10.2333 0C6.18932 0 2.71365 2.26294 1.04937 5.56991L4.49329 8.14366C5.28683 5.78628 7.54893 4.09109 10.2333 4.09109Z" fill="#EB4335"/>
<path fill-rule="evenodd" clip-rule="evenodd" d="M10.2333 15.9089C7.54893 15.9089 5.28694 14.2134 4.4934 11.856L1.04947 14.4293C2.71376 17.7367 6.18932 20 10.2333 20C12.7292 20 15.1122 19.1327 16.9007 17.5076L13.6316 15.0343C12.7092 15.603 11.5478 15.9089 10.2333 15.9089Z" fill="#34A853"/>
<path fill-rule="evenodd" clip-rule="evenodd" d="M20.0007 10.0022C20.0007 9.41129 19.9077 8.7749 19.7681 8.18396H10.2327V12.0478H15.7214C15.4469 13.3651 14.6999 14.3779 13.631 15.037L16.9001 17.5103C18.7788 15.8039 20.0007 13.2619 20.0007 10.0022Z" fill="#4285F4"/>
</svg>
