<svg width="25" height="24" viewBox="0 0 25 24" fill="none" xmlns="http://www.w3.org/2000/svg">
<path d="M20.9999 8.01002L14.4499 2.77002C13.1699 1.75002 11.1699 1.74002 9.89988 2.76002L3.34988 8.01002C2.40988 8.76002 1.83988 10.26 2.03988 11.44L3.29988 18.98C3.58988 20.67 5.15988 22 6.86988 22H17.4699C19.1599 22 20.7599 20.64 21.0499 18.97L22.3099 11.43C22.4899 10.26 21.9199 8.76002 20.9999 8.01002Z" fill="#14142B" fill-opacity="0.4"/>
<path d="M12.5 18.75C12.09 18.75 11.75 18.41 11.75 18V15C11.75 14.59 12.09 14.25 12.5 14.25C12.91 14.25 13.25 14.59 13.25 15V18C13.25 18.41 12.91 18.75 12.5 18.75Z" fill="#14142B"/>
</svg>
