<svg width="20" height="20" viewBox="0 0 20 20" fill="none" xmlns="http://www.w3.org/2000/svg">
<path d="M18.9271 1.07293C18.2251 0.370934 17.231 0.0949343 16.265 0.335934L3.15221 3.61395C1.40421 4.05095 0.238084 5.55493 0.251084 7.35693C0.264084 9.15893 1.45021 10.6459 3.20421 11.0589L7.85021 12.1519L8.94322 16.7969C9.35622 18.5509 10.8431 19.7369 12.6451 19.7499C12.6541 19.7499 12.6642 19.7499 12.6732 19.7499C14.4622 19.7499 15.9521 18.5869 16.3871 16.8489L19.6651 3.73593C19.9051 2.77093 19.6301 1.77593 18.9271 1.07293ZM18.2091 3.37195L14.931 16.4849C14.602 17.7979 13.5412 18.2579 12.6542 18.2499C11.8092 18.2439 10.7132 17.7699 10.4032 16.4539L9.29918 11.7629L13.5301 7.53094C13.8231 7.23794 13.8231 6.76294 13.5301 6.46994C13.2371 6.17694 12.7621 6.17694 12.4691 6.46994L8.23717 10.7019L3.54601 9.59793C2.22901 9.28793 1.75513 8.19094 1.74913 7.34594C1.74313 6.50094 2.20202 5.39694 3.51402 5.06894L16.6271 1.79092C16.7341 1.76392 16.8421 1.75094 16.9481 1.75094C17.2881 1.75094 17.6161 1.88494 17.8651 2.13394C18.1921 2.45994 18.3211 2.92295 18.2091 3.37195Z" fill="url(#paint0_linear_467_4881)"/>
<defs>
<linearGradient id="paint0_linear_467_4881" x1="18.7698" y1="19.7499" x2="-1.61992" y2="4.35021" gradientUnits="userSpaceOnUse">
<stop stop-color="#3C95F0"/>
<stop offset="1" stop-color="#51C1F4"/>
</linearGradient>
</defs>
</svg>
