<svg width="25" height="24" viewBox="0 0 25 24" fill="none" xmlns="http://www.w3.org/2000/svg">
<path opacity="0.4" d="M18.54 13.55C18.12 13.96 17.88 14.55 17.94 15.18C18.03 16.26 19.02 17.05 20.1 17.05H22V18.24C22 20.31 20.31 22 18.24 22H6.76C4.69 22 3 20.31 3 18.24V11.51C3 9.44001 4.69 7.75 6.76 7.75H18.24C20.31 7.75 22 9.44001 22 11.51V12.95H19.98C19.42 12.95 18.91 13.17 18.54 13.55Z" fill="#14142B"/>
<path d="M15.35 3.95012V7.75011H6.76C4.69 7.75011 3 9.44012 3 11.5101V7.84014C3 6.65014 3.73 5.59009 4.84 5.17009L12.78 2.17009C14.02 1.71009 15.35 2.62012 15.35 3.95012Z" fill="#14142B"/>
<path d="M23.06 13.9702V16.0302C23.06 16.5802 22.62 17.0302 22.06 17.0502H20.1C19.02 17.0502 18.03 16.2602 17.94 15.1802C17.88 14.5502 18.12 13.9602 18.54 13.5502C18.91 13.1702 19.42 12.9502 19.98 12.9502H22.06C22.62 12.9702 23.06 13.4202 23.06 13.9702Z" fill="#14142B"/>
<path d="M14.5 12.75H7.5C7.09 12.75 6.75 12.41 6.75 12C6.75 11.59 7.09 11.25 7.5 11.25H14.5C14.91 11.25 15.25 11.59 15.25 12C15.25 12.41 14.91 12.75 14.5 12.75Z" fill="#14142B"/>
</svg>
